G04 #@! TF.GenerationSoftware,KiCad,Pcbnew,(5.1.2)-1*
G04 #@! TF.CreationDate,2024-04-02T23:27:51+09:00*
G04 #@! TF.ProjectId,gpio40,6770696f-3430-42e6-9b69-6361645f7063,v1.0*
G04 #@! TF.SameCoordinates,Original*
G04 #@! TF.FileFunction,Soldermask,Bot*
G04 #@! TF.FilePolarity,Negative*
%FSLAX46Y46*%
G04 Gerber Fmt 4.6, Leading zero omitted, Abs format (unit mm)*
G04 Created by KiCad (PCBNEW (5.1.2)-1) date 2024-04-02 23:27:51*
%MOMM*%
%LPD*%
G04 APERTURE LIST*
%ADD10C,0.100000*%
G04 APERTURE END LIST*
D10*
G36*
X145681000Y-127901000D02*
G01*
X143879000Y-127901000D01*
X143879000Y-126099000D01*
X145681000Y-126099000D01*
X145681000Y-127901000D01*
X145681000Y-127901000D01*
G37*
G36*
X122030443Y-126105519D02*
G01*
X122096627Y-126112037D01*
X122266466Y-126163557D01*
X122422991Y-126247222D01*
X122458729Y-126276552D01*
X122560186Y-126359814D01*
X122643448Y-126461271D01*
X122672778Y-126497009D01*
X122756443Y-126653534D01*
X122807963Y-126823373D01*
X122825359Y-127000000D01*
X122807963Y-127176627D01*
X122756443Y-127346466D01*
X122672778Y-127502991D01*
X122643448Y-127538729D01*
X122560186Y-127640186D01*
X122458729Y-127723448D01*
X122422991Y-127752778D01*
X122266466Y-127836443D01*
X122096627Y-127887963D01*
X122030442Y-127894482D01*
X121964260Y-127901000D01*
X121875740Y-127901000D01*
X121809558Y-127894482D01*
X121743373Y-127887963D01*
X121573534Y-127836443D01*
X121417009Y-127752778D01*
X121381271Y-127723448D01*
X121279814Y-127640186D01*
X121196552Y-127538729D01*
X121167222Y-127502991D01*
X121083557Y-127346466D01*
X121032037Y-127176627D01*
X121014641Y-127000000D01*
X121032037Y-126823373D01*
X121083557Y-126653534D01*
X121167222Y-126497009D01*
X121196552Y-126461271D01*
X121279814Y-126359814D01*
X121381271Y-126276552D01*
X121417009Y-126247222D01*
X121573534Y-126163557D01*
X121743373Y-126112037D01*
X121809557Y-126105519D01*
X121875740Y-126099000D01*
X121964260Y-126099000D01*
X122030443Y-126105519D01*
X122030443Y-126105519D01*
G37*
G36*
X144890442Y-123565518D02*
G01*
X144956627Y-123572037D01*
X145126466Y-123623557D01*
X145282991Y-123707222D01*
X145318729Y-123736552D01*
X145420186Y-123819814D01*
X145503448Y-123921271D01*
X145532778Y-123957009D01*
X145616443Y-124113534D01*
X145667963Y-124283373D01*
X145685359Y-124460000D01*
X145667963Y-124636627D01*
X145616443Y-124806466D01*
X145532778Y-124962991D01*
X145503448Y-124998729D01*
X145420186Y-125100186D01*
X145318729Y-125183448D01*
X145282991Y-125212778D01*
X145126466Y-125296443D01*
X144956627Y-125347963D01*
X144890442Y-125354482D01*
X144824260Y-125361000D01*
X144735740Y-125361000D01*
X144669558Y-125354482D01*
X144603373Y-125347963D01*
X144433534Y-125296443D01*
X144277009Y-125212778D01*
X144241271Y-125183448D01*
X144139814Y-125100186D01*
X144056552Y-124998729D01*
X144027222Y-124962991D01*
X143943557Y-124806466D01*
X143892037Y-124636627D01*
X143874641Y-124460000D01*
X143892037Y-124283373D01*
X143943557Y-124113534D01*
X144027222Y-123957009D01*
X144056552Y-123921271D01*
X144139814Y-123819814D01*
X144241271Y-123736552D01*
X144277009Y-123707222D01*
X144433534Y-123623557D01*
X144603373Y-123572037D01*
X144669558Y-123565518D01*
X144735740Y-123559000D01*
X144824260Y-123559000D01*
X144890442Y-123565518D01*
X144890442Y-123565518D01*
G37*
G36*
X122030442Y-123565518D02*
G01*
X122096627Y-123572037D01*
X122266466Y-123623557D01*
X122422991Y-123707222D01*
X122458729Y-123736552D01*
X122560186Y-123819814D01*
X122643448Y-123921271D01*
X122672778Y-123957009D01*
X122756443Y-124113534D01*
X122807963Y-124283373D01*
X122825359Y-124460000D01*
X122807963Y-124636627D01*
X122756443Y-124806466D01*
X122672778Y-124962991D01*
X122643448Y-124998729D01*
X122560186Y-125100186D01*
X122458729Y-125183448D01*
X122422991Y-125212778D01*
X122266466Y-125296443D01*
X122096627Y-125347963D01*
X122030442Y-125354482D01*
X121964260Y-125361000D01*
X121875740Y-125361000D01*
X121809558Y-125354482D01*
X121743373Y-125347963D01*
X121573534Y-125296443D01*
X121417009Y-125212778D01*
X121381271Y-125183448D01*
X121279814Y-125100186D01*
X121196552Y-124998729D01*
X121167222Y-124962991D01*
X121083557Y-124806466D01*
X121032037Y-124636627D01*
X121014641Y-124460000D01*
X121032037Y-124283373D01*
X121083557Y-124113534D01*
X121167222Y-123957009D01*
X121196552Y-123921271D01*
X121279814Y-123819814D01*
X121381271Y-123736552D01*
X121417009Y-123707222D01*
X121573534Y-123623557D01*
X121743373Y-123572037D01*
X121809558Y-123565518D01*
X121875740Y-123559000D01*
X121964260Y-123559000D01*
X122030442Y-123565518D01*
X122030442Y-123565518D01*
G37*
G36*
X144890442Y-121025518D02*
G01*
X144956627Y-121032037D01*
X145126466Y-121083557D01*
X145282991Y-121167222D01*
X145318729Y-121196552D01*
X145420186Y-121279814D01*
X145503448Y-121381271D01*
X145532778Y-121417009D01*
X145616443Y-121573534D01*
X145667963Y-121743373D01*
X145685359Y-121920000D01*
X145667963Y-122096627D01*
X145616443Y-122266466D01*
X145532778Y-122422991D01*
X145503448Y-122458729D01*
X145420186Y-122560186D01*
X145318729Y-122643448D01*
X145282991Y-122672778D01*
X145126466Y-122756443D01*
X144956627Y-122807963D01*
X144890443Y-122814481D01*
X144824260Y-122821000D01*
X144735740Y-122821000D01*
X144669557Y-122814481D01*
X144603373Y-122807963D01*
X144433534Y-122756443D01*
X144277009Y-122672778D01*
X144241271Y-122643448D01*
X144139814Y-122560186D01*
X144056552Y-122458729D01*
X144027222Y-122422991D01*
X143943557Y-122266466D01*
X143892037Y-122096627D01*
X143874641Y-121920000D01*
X143892037Y-121743373D01*
X143943557Y-121573534D01*
X144027222Y-121417009D01*
X144056552Y-121381271D01*
X144139814Y-121279814D01*
X144241271Y-121196552D01*
X144277009Y-121167222D01*
X144433534Y-121083557D01*
X144603373Y-121032037D01*
X144669558Y-121025518D01*
X144735740Y-121019000D01*
X144824260Y-121019000D01*
X144890442Y-121025518D01*
X144890442Y-121025518D01*
G37*
G36*
X122030442Y-121025518D02*
G01*
X122096627Y-121032037D01*
X122266466Y-121083557D01*
X122422991Y-121167222D01*
X122458729Y-121196552D01*
X122560186Y-121279814D01*
X122643448Y-121381271D01*
X122672778Y-121417009D01*
X122756443Y-121573534D01*
X122807963Y-121743373D01*
X122825359Y-121920000D01*
X122807963Y-122096627D01*
X122756443Y-122266466D01*
X122672778Y-122422991D01*
X122643448Y-122458729D01*
X122560186Y-122560186D01*
X122458729Y-122643448D01*
X122422991Y-122672778D01*
X122266466Y-122756443D01*
X122096627Y-122807963D01*
X122030443Y-122814481D01*
X121964260Y-122821000D01*
X121875740Y-122821000D01*
X121809557Y-122814481D01*
X121743373Y-122807963D01*
X121573534Y-122756443D01*
X121417009Y-122672778D01*
X121381271Y-122643448D01*
X121279814Y-122560186D01*
X121196552Y-122458729D01*
X121167222Y-122422991D01*
X121083557Y-122266466D01*
X121032037Y-122096627D01*
X121014641Y-121920000D01*
X121032037Y-121743373D01*
X121083557Y-121573534D01*
X121167222Y-121417009D01*
X121196552Y-121381271D01*
X121279814Y-121279814D01*
X121381271Y-121196552D01*
X121417009Y-121167222D01*
X121573534Y-121083557D01*
X121743373Y-121032037D01*
X121809558Y-121025518D01*
X121875740Y-121019000D01*
X121964260Y-121019000D01*
X122030442Y-121025518D01*
X122030442Y-121025518D01*
G37*
G36*
X122030442Y-118485518D02*
G01*
X122096627Y-118492037D01*
X122266466Y-118543557D01*
X122422991Y-118627222D01*
X122458729Y-118656552D01*
X122560186Y-118739814D01*
X122643448Y-118841271D01*
X122672778Y-118877009D01*
X122756443Y-119033534D01*
X122807963Y-119203373D01*
X122825359Y-119380000D01*
X122807963Y-119556627D01*
X122756443Y-119726466D01*
X122672778Y-119882991D01*
X122643448Y-119918729D01*
X122560186Y-120020186D01*
X122458729Y-120103448D01*
X122422991Y-120132778D01*
X122266466Y-120216443D01*
X122096627Y-120267963D01*
X122030442Y-120274482D01*
X121964260Y-120281000D01*
X121875740Y-120281000D01*
X121809558Y-120274482D01*
X121743373Y-120267963D01*
X121573534Y-120216443D01*
X121417009Y-120132778D01*
X121381271Y-120103448D01*
X121279814Y-120020186D01*
X121196552Y-119918729D01*
X121167222Y-119882991D01*
X121083557Y-119726466D01*
X121032037Y-119556627D01*
X121014641Y-119380000D01*
X121032037Y-119203373D01*
X121083557Y-119033534D01*
X121167222Y-118877009D01*
X121196552Y-118841271D01*
X121279814Y-118739814D01*
X121381271Y-118656552D01*
X121417009Y-118627222D01*
X121573534Y-118543557D01*
X121743373Y-118492037D01*
X121809558Y-118485518D01*
X121875740Y-118479000D01*
X121964260Y-118479000D01*
X122030442Y-118485518D01*
X122030442Y-118485518D01*
G37*
G36*
X144890442Y-118485518D02*
G01*
X144956627Y-118492037D01*
X145126466Y-118543557D01*
X145282991Y-118627222D01*
X145318729Y-118656552D01*
X145420186Y-118739814D01*
X145503448Y-118841271D01*
X145532778Y-118877009D01*
X145616443Y-119033534D01*
X145667963Y-119203373D01*
X145685359Y-119380000D01*
X145667963Y-119556627D01*
X145616443Y-119726466D01*
X145532778Y-119882991D01*
X145503448Y-119918729D01*
X145420186Y-120020186D01*
X145318729Y-120103448D01*
X145282991Y-120132778D01*
X145126466Y-120216443D01*
X144956627Y-120267963D01*
X144890442Y-120274482D01*
X144824260Y-120281000D01*
X144735740Y-120281000D01*
X144669558Y-120274482D01*
X144603373Y-120267963D01*
X144433534Y-120216443D01*
X144277009Y-120132778D01*
X144241271Y-120103448D01*
X144139814Y-120020186D01*
X144056552Y-119918729D01*
X144027222Y-119882991D01*
X143943557Y-119726466D01*
X143892037Y-119556627D01*
X143874641Y-119380000D01*
X143892037Y-119203373D01*
X143943557Y-119033534D01*
X144027222Y-118877009D01*
X144056552Y-118841271D01*
X144139814Y-118739814D01*
X144241271Y-118656552D01*
X144277009Y-118627222D01*
X144433534Y-118543557D01*
X144603373Y-118492037D01*
X144669558Y-118485518D01*
X144735740Y-118479000D01*
X144824260Y-118479000D01*
X144890442Y-118485518D01*
X144890442Y-118485518D01*
G37*
G36*
X144890442Y-115945518D02*
G01*
X144956627Y-115952037D01*
X145126466Y-116003557D01*
X145282991Y-116087222D01*
X145318729Y-116116552D01*
X145420186Y-116199814D01*
X145493707Y-116289401D01*
X145532778Y-116337009D01*
X145532779Y-116337011D01*
X145610233Y-116481915D01*
X145616443Y-116493534D01*
X145667963Y-116663373D01*
X145685359Y-116840000D01*
X145667963Y-117016627D01*
X145616443Y-117186466D01*
X145532778Y-117342991D01*
X145503448Y-117378729D01*
X145420186Y-117480186D01*
X145318729Y-117563448D01*
X145282991Y-117592778D01*
X145126466Y-117676443D01*
X144956627Y-117727963D01*
X144890442Y-117734482D01*
X144824260Y-117741000D01*
X144735740Y-117741000D01*
X144669558Y-117734482D01*
X144603373Y-117727963D01*
X144433534Y-117676443D01*
X144277009Y-117592778D01*
X144241271Y-117563448D01*
X144139814Y-117480186D01*
X144056552Y-117378729D01*
X144027222Y-117342991D01*
X143943557Y-117186466D01*
X143892037Y-117016627D01*
X143874641Y-116840000D01*
X143892037Y-116663373D01*
X143943557Y-116493534D01*
X143949768Y-116481915D01*
X144027221Y-116337011D01*
X144027222Y-116337009D01*
X144066293Y-116289401D01*
X144139814Y-116199814D01*
X144241271Y-116116552D01*
X144277009Y-116087222D01*
X144433534Y-116003557D01*
X144603373Y-115952037D01*
X144669558Y-115945518D01*
X144735740Y-115939000D01*
X144824260Y-115939000D01*
X144890442Y-115945518D01*
X144890442Y-115945518D01*
G37*
G36*
X122030442Y-115945518D02*
G01*
X122096627Y-115952037D01*
X122266466Y-116003557D01*
X122422991Y-116087222D01*
X122458729Y-116116552D01*
X122560186Y-116199814D01*
X122633707Y-116289401D01*
X122672778Y-116337009D01*
X122672779Y-116337011D01*
X122750233Y-116481915D01*
X122756443Y-116493534D01*
X122807963Y-116663373D01*
X122825359Y-116840000D01*
X122807963Y-117016627D01*
X122756443Y-117186466D01*
X122672778Y-117342991D01*
X122643448Y-117378729D01*
X122560186Y-117480186D01*
X122458729Y-117563448D01*
X122422991Y-117592778D01*
X122266466Y-117676443D01*
X122096627Y-117727963D01*
X122030442Y-117734482D01*
X121964260Y-117741000D01*
X121875740Y-117741000D01*
X121809558Y-117734482D01*
X121743373Y-117727963D01*
X121573534Y-117676443D01*
X121417009Y-117592778D01*
X121381271Y-117563448D01*
X121279814Y-117480186D01*
X121196552Y-117378729D01*
X121167222Y-117342991D01*
X121083557Y-117186466D01*
X121032037Y-117016627D01*
X121014641Y-116840000D01*
X121032037Y-116663373D01*
X121083557Y-116493534D01*
X121089768Y-116481915D01*
X121167221Y-116337011D01*
X121167222Y-116337009D01*
X121206293Y-116289401D01*
X121279814Y-116199814D01*
X121381271Y-116116552D01*
X121417009Y-116087222D01*
X121573534Y-116003557D01*
X121743373Y-115952037D01*
X121809558Y-115945518D01*
X121875740Y-115939000D01*
X121964260Y-115939000D01*
X122030442Y-115945518D01*
X122030442Y-115945518D01*
G37*
G36*
X131039591Y-115438085D02*
G01*
X131073569Y-115448393D01*
X131104890Y-115465134D01*
X131132339Y-115487661D01*
X131154866Y-115515110D01*
X131171607Y-115546431D01*
X131181915Y-115580409D01*
X131186000Y-115621890D01*
X131186000Y-116298110D01*
X131181915Y-116339591D01*
X131171607Y-116373569D01*
X131154866Y-116404890D01*
X131132339Y-116432339D01*
X131104890Y-116454866D01*
X131073569Y-116471607D01*
X131039591Y-116481915D01*
X130998110Y-116486000D01*
X130396890Y-116486000D01*
X130355409Y-116481915D01*
X130321431Y-116471607D01*
X130290110Y-116454866D01*
X130262661Y-116432339D01*
X130240134Y-116404890D01*
X130223393Y-116373569D01*
X130213085Y-116339591D01*
X130209000Y-116298110D01*
X130209000Y-115621890D01*
X130213085Y-115580409D01*
X130223393Y-115546431D01*
X130240134Y-115515110D01*
X130262661Y-115487661D01*
X130290110Y-115465134D01*
X130321431Y-115448393D01*
X130355409Y-115438085D01*
X130396890Y-115434000D01*
X130998110Y-115434000D01*
X131039591Y-115438085D01*
X131039591Y-115438085D01*
G37*
G36*
X129464591Y-115438085D02*
G01*
X129498569Y-115448393D01*
X129529890Y-115465134D01*
X129557339Y-115487661D01*
X129579866Y-115515110D01*
X129596607Y-115546431D01*
X129606915Y-115580409D01*
X129611000Y-115621890D01*
X129611000Y-116298110D01*
X129606915Y-116339591D01*
X129596607Y-116373569D01*
X129579866Y-116404890D01*
X129557339Y-116432339D01*
X129529890Y-116454866D01*
X129498569Y-116471607D01*
X129464591Y-116481915D01*
X129423110Y-116486000D01*
X128821890Y-116486000D01*
X128780409Y-116481915D01*
X128746431Y-116471607D01*
X128715110Y-116454866D01*
X128687661Y-116432339D01*
X128665134Y-116404890D01*
X128648393Y-116373569D01*
X128638085Y-116339591D01*
X128634000Y-116298110D01*
X128634000Y-115621890D01*
X128638085Y-115580409D01*
X128648393Y-115546431D01*
X128665134Y-115515110D01*
X128687661Y-115487661D01*
X128715110Y-115465134D01*
X128746431Y-115448393D01*
X128780409Y-115438085D01*
X128821890Y-115434000D01*
X129423110Y-115434000D01*
X129464591Y-115438085D01*
X129464591Y-115438085D01*
G37*
G36*
X137871591Y-115428085D02*
G01*
X137905569Y-115438393D01*
X137936890Y-115455134D01*
X137964339Y-115477661D01*
X137986866Y-115505110D01*
X138003607Y-115536431D01*
X138013915Y-115570409D01*
X138018000Y-115611890D01*
X138018000Y-116288110D01*
X138013915Y-116329591D01*
X138003607Y-116363569D01*
X137986866Y-116394890D01*
X137964339Y-116422339D01*
X137936890Y-116444866D01*
X137905569Y-116461607D01*
X137871591Y-116471915D01*
X137830110Y-116476000D01*
X137228890Y-116476000D01*
X137187409Y-116471915D01*
X137153431Y-116461607D01*
X137122110Y-116444866D01*
X137094661Y-116422339D01*
X137072134Y-116394890D01*
X137055393Y-116363569D01*
X137045085Y-116329591D01*
X137041000Y-116288110D01*
X137041000Y-115611890D01*
X137045085Y-115570409D01*
X137055393Y-115536431D01*
X137072134Y-115505110D01*
X137094661Y-115477661D01*
X137122110Y-115455134D01*
X137153431Y-115438393D01*
X137187409Y-115428085D01*
X137228890Y-115424000D01*
X137830110Y-115424000D01*
X137871591Y-115428085D01*
X137871591Y-115428085D01*
G37*
G36*
X136296591Y-115428085D02*
G01*
X136330569Y-115438393D01*
X136361890Y-115455134D01*
X136389339Y-115477661D01*
X136411866Y-115505110D01*
X136428607Y-115536431D01*
X136438915Y-115570409D01*
X136443000Y-115611890D01*
X136443000Y-116288110D01*
X136438915Y-116329591D01*
X136428607Y-116363569D01*
X136411866Y-116394890D01*
X136389339Y-116422339D01*
X136361890Y-116444866D01*
X136330569Y-116461607D01*
X136296591Y-116471915D01*
X136255110Y-116476000D01*
X135653890Y-116476000D01*
X135612409Y-116471915D01*
X135578431Y-116461607D01*
X135547110Y-116444866D01*
X135519661Y-116422339D01*
X135497134Y-116394890D01*
X135480393Y-116363569D01*
X135470085Y-116329591D01*
X135466000Y-116288110D01*
X135466000Y-115611890D01*
X135470085Y-115570409D01*
X135480393Y-115536431D01*
X135497134Y-115505110D01*
X135519661Y-115477661D01*
X135547110Y-115455134D01*
X135578431Y-115438393D01*
X135612409Y-115428085D01*
X135653890Y-115424000D01*
X136255110Y-115424000D01*
X136296591Y-115428085D01*
X136296591Y-115428085D01*
G37*
G36*
X144890443Y-113405519D02*
G01*
X144956627Y-113412037D01*
X145126466Y-113463557D01*
X145282991Y-113547222D01*
X145318729Y-113576552D01*
X145420186Y-113659814D01*
X145500764Y-113758000D01*
X145532778Y-113797009D01*
X145616443Y-113953534D01*
X145667963Y-114123373D01*
X145685359Y-114300000D01*
X145667963Y-114476627D01*
X145616443Y-114646466D01*
X145532778Y-114802991D01*
X145522670Y-114815307D01*
X145420186Y-114940186D01*
X145318729Y-115023448D01*
X145282991Y-115052778D01*
X145126466Y-115136443D01*
X144956627Y-115187963D01*
X144890442Y-115194482D01*
X144824260Y-115201000D01*
X144735740Y-115201000D01*
X144669558Y-115194482D01*
X144603373Y-115187963D01*
X144433534Y-115136443D01*
X144277009Y-115052778D01*
X144241271Y-115023448D01*
X144139814Y-114940186D01*
X144037330Y-114815307D01*
X144027222Y-114802991D01*
X143943557Y-114646466D01*
X143892037Y-114476627D01*
X143874641Y-114300000D01*
X143892037Y-114123373D01*
X143943557Y-113953534D01*
X144027222Y-113797009D01*
X144059236Y-113758000D01*
X144139814Y-113659814D01*
X144241271Y-113576552D01*
X144277009Y-113547222D01*
X144433534Y-113463557D01*
X144603373Y-113412037D01*
X144669557Y-113405519D01*
X144735740Y-113399000D01*
X144824260Y-113399000D01*
X144890443Y-113405519D01*
X144890443Y-113405519D01*
G37*
G36*
X122030443Y-113405519D02*
G01*
X122096627Y-113412037D01*
X122266466Y-113463557D01*
X122422991Y-113547222D01*
X122458729Y-113576552D01*
X122560186Y-113659814D01*
X122640764Y-113758000D01*
X122672778Y-113797009D01*
X122756443Y-113953534D01*
X122807963Y-114123373D01*
X122825359Y-114300000D01*
X122807963Y-114476627D01*
X122756443Y-114646466D01*
X122672778Y-114802991D01*
X122662670Y-114815307D01*
X122560186Y-114940186D01*
X122458729Y-115023448D01*
X122422991Y-115052778D01*
X122266466Y-115136443D01*
X122096627Y-115187963D01*
X122030442Y-115194482D01*
X121964260Y-115201000D01*
X121875740Y-115201000D01*
X121809558Y-115194482D01*
X121743373Y-115187963D01*
X121573534Y-115136443D01*
X121417009Y-115052778D01*
X121381271Y-115023448D01*
X121279814Y-114940186D01*
X121177330Y-114815307D01*
X121167222Y-114802991D01*
X121083557Y-114646466D01*
X121032037Y-114476627D01*
X121014641Y-114300000D01*
X121032037Y-114123373D01*
X121083557Y-113953534D01*
X121167222Y-113797009D01*
X121199236Y-113758000D01*
X121279814Y-113659814D01*
X121381271Y-113576552D01*
X121417009Y-113547222D01*
X121573534Y-113463557D01*
X121743373Y-113412037D01*
X121809557Y-113405519D01*
X121875740Y-113399000D01*
X121964260Y-113399000D01*
X122030443Y-113405519D01*
X122030443Y-113405519D01*
G37*
G36*
X131039591Y-113772085D02*
G01*
X131073569Y-113782393D01*
X131104890Y-113799134D01*
X131132339Y-113821661D01*
X131154866Y-113849110D01*
X131171607Y-113880431D01*
X131181915Y-113914409D01*
X131186000Y-113955890D01*
X131186000Y-114632110D01*
X131181915Y-114673591D01*
X131171607Y-114707569D01*
X131154866Y-114738890D01*
X131132339Y-114766339D01*
X131104890Y-114788866D01*
X131073569Y-114805607D01*
X131039591Y-114815915D01*
X130998110Y-114820000D01*
X130396890Y-114820000D01*
X130355409Y-114815915D01*
X130321431Y-114805607D01*
X130290110Y-114788866D01*
X130262661Y-114766339D01*
X130240134Y-114738890D01*
X130223393Y-114707569D01*
X130213085Y-114673591D01*
X130209000Y-114632110D01*
X130209000Y-113955890D01*
X130213085Y-113914409D01*
X130223393Y-113880431D01*
X130240134Y-113849110D01*
X130262661Y-113821661D01*
X130290110Y-113799134D01*
X130321431Y-113782393D01*
X130355409Y-113772085D01*
X130396890Y-113768000D01*
X130998110Y-113768000D01*
X131039591Y-113772085D01*
X131039591Y-113772085D01*
G37*
G36*
X129464591Y-113772085D02*
G01*
X129498569Y-113782393D01*
X129529890Y-113799134D01*
X129557339Y-113821661D01*
X129579866Y-113849110D01*
X129596607Y-113880431D01*
X129606915Y-113914409D01*
X129611000Y-113955890D01*
X129611000Y-114632110D01*
X129606915Y-114673591D01*
X129596607Y-114707569D01*
X129579866Y-114738890D01*
X129557339Y-114766339D01*
X129529890Y-114788866D01*
X129498569Y-114805607D01*
X129464591Y-114815915D01*
X129423110Y-114820000D01*
X128821890Y-114820000D01*
X128780409Y-114815915D01*
X128746431Y-114805607D01*
X128715110Y-114788866D01*
X128687661Y-114766339D01*
X128665134Y-114738890D01*
X128648393Y-114707569D01*
X128638085Y-114673591D01*
X128634000Y-114632110D01*
X128634000Y-113955890D01*
X128638085Y-113914409D01*
X128648393Y-113880431D01*
X128665134Y-113849110D01*
X128687661Y-113821661D01*
X128715110Y-113799134D01*
X128746431Y-113782393D01*
X128780409Y-113772085D01*
X128821890Y-113768000D01*
X129423110Y-113768000D01*
X129464591Y-113772085D01*
X129464591Y-113772085D01*
G37*
G36*
X137871591Y-113762085D02*
G01*
X137905569Y-113772393D01*
X137936890Y-113789134D01*
X137964339Y-113811661D01*
X137986866Y-113839110D01*
X138003607Y-113870431D01*
X138013915Y-113904409D01*
X138018000Y-113945890D01*
X138018000Y-114622110D01*
X138013915Y-114663591D01*
X138003607Y-114697569D01*
X137986866Y-114728890D01*
X137964339Y-114756339D01*
X137936890Y-114778866D01*
X137905569Y-114795607D01*
X137871591Y-114805915D01*
X137830110Y-114810000D01*
X137228890Y-114810000D01*
X137187409Y-114805915D01*
X137153431Y-114795607D01*
X137122110Y-114778866D01*
X137094661Y-114756339D01*
X137072134Y-114728890D01*
X137055393Y-114697569D01*
X137045085Y-114663591D01*
X137041000Y-114622110D01*
X137041000Y-113945890D01*
X137045085Y-113904409D01*
X137055393Y-113870431D01*
X137072134Y-113839110D01*
X137094661Y-113811661D01*
X137122110Y-113789134D01*
X137153431Y-113772393D01*
X137187409Y-113762085D01*
X137228890Y-113758000D01*
X137830110Y-113758000D01*
X137871591Y-113762085D01*
X137871591Y-113762085D01*
G37*
G36*
X136296591Y-113762085D02*
G01*
X136330569Y-113772393D01*
X136361890Y-113789134D01*
X136389339Y-113811661D01*
X136411866Y-113839110D01*
X136428607Y-113870431D01*
X136438915Y-113904409D01*
X136443000Y-113945890D01*
X136443000Y-114622110D01*
X136438915Y-114663591D01*
X136428607Y-114697569D01*
X136411866Y-114728890D01*
X136389339Y-114756339D01*
X136361890Y-114778866D01*
X136330569Y-114795607D01*
X136296591Y-114805915D01*
X136255110Y-114810000D01*
X135653890Y-114810000D01*
X135612409Y-114805915D01*
X135578431Y-114795607D01*
X135547110Y-114778866D01*
X135519661Y-114756339D01*
X135497134Y-114728890D01*
X135480393Y-114697569D01*
X135470085Y-114663591D01*
X135466000Y-114622110D01*
X135466000Y-113945890D01*
X135470085Y-113904409D01*
X135480393Y-113870431D01*
X135497134Y-113839110D01*
X135519661Y-113811661D01*
X135547110Y-113789134D01*
X135578431Y-113772393D01*
X135612409Y-113762085D01*
X135653890Y-113758000D01*
X136255110Y-113758000D01*
X136296591Y-113762085D01*
X136296591Y-113762085D01*
G37*
G36*
X131039591Y-112106085D02*
G01*
X131073569Y-112116393D01*
X131104890Y-112133134D01*
X131132339Y-112155661D01*
X131154866Y-112183110D01*
X131171607Y-112214431D01*
X131181915Y-112248409D01*
X131186000Y-112289890D01*
X131186000Y-112966110D01*
X131181915Y-113007591D01*
X131171607Y-113041569D01*
X131154866Y-113072890D01*
X131132339Y-113100339D01*
X131104890Y-113122866D01*
X131073569Y-113139607D01*
X131039591Y-113149915D01*
X130998110Y-113154000D01*
X130396890Y-113154000D01*
X130355409Y-113149915D01*
X130321431Y-113139607D01*
X130290110Y-113122866D01*
X130262661Y-113100339D01*
X130240134Y-113072890D01*
X130223393Y-113041569D01*
X130213085Y-113007591D01*
X130209000Y-112966110D01*
X130209000Y-112289890D01*
X130213085Y-112248409D01*
X130223393Y-112214431D01*
X130240134Y-112183110D01*
X130262661Y-112155661D01*
X130290110Y-112133134D01*
X130321431Y-112116393D01*
X130355409Y-112106085D01*
X130396890Y-112102000D01*
X130998110Y-112102000D01*
X131039591Y-112106085D01*
X131039591Y-112106085D01*
G37*
G36*
X129464591Y-112106085D02*
G01*
X129498569Y-112116393D01*
X129529890Y-112133134D01*
X129557339Y-112155661D01*
X129579866Y-112183110D01*
X129596607Y-112214431D01*
X129606915Y-112248409D01*
X129611000Y-112289890D01*
X129611000Y-112966110D01*
X129606915Y-113007591D01*
X129596607Y-113041569D01*
X129579866Y-113072890D01*
X129557339Y-113100339D01*
X129529890Y-113122866D01*
X129498569Y-113139607D01*
X129464591Y-113149915D01*
X129423110Y-113154000D01*
X128821890Y-113154000D01*
X128780409Y-113149915D01*
X128746431Y-113139607D01*
X128715110Y-113122866D01*
X128687661Y-113100339D01*
X128665134Y-113072890D01*
X128648393Y-113041569D01*
X128638085Y-113007591D01*
X128634000Y-112966110D01*
X128634000Y-112289890D01*
X128638085Y-112248409D01*
X128648393Y-112214431D01*
X128665134Y-112183110D01*
X128687661Y-112155661D01*
X128715110Y-112133134D01*
X128746431Y-112116393D01*
X128780409Y-112106085D01*
X128821890Y-112102000D01*
X129423110Y-112102000D01*
X129464591Y-112106085D01*
X129464591Y-112106085D01*
G37*
G36*
X136296591Y-112096085D02*
G01*
X136330569Y-112106393D01*
X136361890Y-112123134D01*
X136389339Y-112145661D01*
X136411866Y-112173110D01*
X136428607Y-112204431D01*
X136438915Y-112238409D01*
X136443000Y-112279890D01*
X136443000Y-112956110D01*
X136438915Y-112997591D01*
X136428607Y-113031569D01*
X136411866Y-113062890D01*
X136389339Y-113090339D01*
X136361890Y-113112866D01*
X136330569Y-113129607D01*
X136296591Y-113139915D01*
X136255110Y-113144000D01*
X135653890Y-113144000D01*
X135612409Y-113139915D01*
X135578431Y-113129607D01*
X135547110Y-113112866D01*
X135519661Y-113090339D01*
X135497134Y-113062890D01*
X135480393Y-113031569D01*
X135470085Y-112997591D01*
X135466000Y-112956110D01*
X135466000Y-112279890D01*
X135470085Y-112238409D01*
X135480393Y-112204431D01*
X135497134Y-112173110D01*
X135519661Y-112145661D01*
X135547110Y-112123134D01*
X135578431Y-112106393D01*
X135612409Y-112096085D01*
X135653890Y-112092000D01*
X136255110Y-112092000D01*
X136296591Y-112096085D01*
X136296591Y-112096085D01*
G37*
G36*
X137871591Y-112096085D02*
G01*
X137905569Y-112106393D01*
X137936890Y-112123134D01*
X137964339Y-112145661D01*
X137986866Y-112173110D01*
X138003607Y-112204431D01*
X138013915Y-112238409D01*
X138018000Y-112279890D01*
X138018000Y-112956110D01*
X138013915Y-112997591D01*
X138003607Y-113031569D01*
X137986866Y-113062890D01*
X137964339Y-113090339D01*
X137936890Y-113112866D01*
X137905569Y-113129607D01*
X137871591Y-113139915D01*
X137830110Y-113144000D01*
X137228890Y-113144000D01*
X137187409Y-113139915D01*
X137153431Y-113129607D01*
X137122110Y-113112866D01*
X137094661Y-113090339D01*
X137072134Y-113062890D01*
X137055393Y-113031569D01*
X137045085Y-112997591D01*
X137041000Y-112956110D01*
X137041000Y-112279890D01*
X137045085Y-112238409D01*
X137055393Y-112204431D01*
X137072134Y-112173110D01*
X137094661Y-112145661D01*
X137122110Y-112123134D01*
X137153431Y-112106393D01*
X137187409Y-112096085D01*
X137228890Y-112092000D01*
X137830110Y-112092000D01*
X137871591Y-112096085D01*
X137871591Y-112096085D01*
G37*
G36*
X122030442Y-110865518D02*
G01*
X122096627Y-110872037D01*
X122266466Y-110923557D01*
X122422991Y-111007222D01*
X122458729Y-111036552D01*
X122560186Y-111119814D01*
X122643448Y-111221271D01*
X122672778Y-111257009D01*
X122691696Y-111292401D01*
X122731340Y-111366569D01*
X122756443Y-111413534D01*
X122807963Y-111583373D01*
X122825359Y-111760000D01*
X122807963Y-111936627D01*
X122756443Y-112106466D01*
X122672778Y-112262991D01*
X122658909Y-112279890D01*
X122560186Y-112400186D01*
X122458729Y-112483448D01*
X122422991Y-112512778D01*
X122266466Y-112596443D01*
X122096627Y-112647963D01*
X122030442Y-112654482D01*
X121964260Y-112661000D01*
X121875740Y-112661000D01*
X121809558Y-112654482D01*
X121743373Y-112647963D01*
X121573534Y-112596443D01*
X121417009Y-112512778D01*
X121381271Y-112483448D01*
X121279814Y-112400186D01*
X121181091Y-112279890D01*
X121167222Y-112262991D01*
X121083557Y-112106466D01*
X121032037Y-111936627D01*
X121014641Y-111760000D01*
X121032037Y-111583373D01*
X121083557Y-111413534D01*
X121108661Y-111366569D01*
X121148304Y-111292401D01*
X121167222Y-111257009D01*
X121196552Y-111221271D01*
X121279814Y-111119814D01*
X121381271Y-111036552D01*
X121417009Y-111007222D01*
X121573534Y-110923557D01*
X121743373Y-110872037D01*
X121809558Y-110865518D01*
X121875740Y-110859000D01*
X121964260Y-110859000D01*
X122030442Y-110865518D01*
X122030442Y-110865518D01*
G37*
G36*
X144890442Y-110865518D02*
G01*
X144956627Y-110872037D01*
X145126466Y-110923557D01*
X145282991Y-111007222D01*
X145318729Y-111036552D01*
X145420186Y-111119814D01*
X145503448Y-111221271D01*
X145532778Y-111257009D01*
X145551696Y-111292401D01*
X145591340Y-111366569D01*
X145616443Y-111413534D01*
X145667963Y-111583373D01*
X145685359Y-111760000D01*
X145667963Y-111936627D01*
X145616443Y-112106466D01*
X145532778Y-112262991D01*
X145518909Y-112279890D01*
X145420186Y-112400186D01*
X145318729Y-112483448D01*
X145282991Y-112512778D01*
X145126466Y-112596443D01*
X144956627Y-112647963D01*
X144890442Y-112654482D01*
X144824260Y-112661000D01*
X144735740Y-112661000D01*
X144669558Y-112654482D01*
X144603373Y-112647963D01*
X144433534Y-112596443D01*
X144277009Y-112512778D01*
X144241271Y-112483448D01*
X144139814Y-112400186D01*
X144041091Y-112279890D01*
X144027222Y-112262991D01*
X143943557Y-112106466D01*
X143892037Y-111936627D01*
X143874641Y-111760000D01*
X143892037Y-111583373D01*
X143943557Y-111413534D01*
X143968661Y-111366569D01*
X144008304Y-111292401D01*
X144027222Y-111257009D01*
X144056552Y-111221271D01*
X144139814Y-111119814D01*
X144241271Y-111036552D01*
X144277009Y-111007222D01*
X144433534Y-110923557D01*
X144603373Y-110872037D01*
X144669558Y-110865518D01*
X144735740Y-110859000D01*
X144824260Y-110859000D01*
X144890442Y-110865518D01*
X144890442Y-110865518D01*
G37*
G36*
X129464591Y-110441085D02*
G01*
X129498569Y-110451393D01*
X129529890Y-110468134D01*
X129557339Y-110490661D01*
X129579866Y-110518110D01*
X129596607Y-110549431D01*
X129606915Y-110583409D01*
X129611000Y-110624890D01*
X129611000Y-111301110D01*
X129606915Y-111342591D01*
X129596607Y-111376569D01*
X129579866Y-111407890D01*
X129557339Y-111435339D01*
X129529890Y-111457866D01*
X129498569Y-111474607D01*
X129464591Y-111484915D01*
X129423110Y-111489000D01*
X128821890Y-111489000D01*
X128780409Y-111484915D01*
X128746431Y-111474607D01*
X128715110Y-111457866D01*
X128687661Y-111435339D01*
X128665134Y-111407890D01*
X128648393Y-111376569D01*
X128638085Y-111342591D01*
X128634000Y-111301110D01*
X128634000Y-110624890D01*
X128638085Y-110583409D01*
X128648393Y-110549431D01*
X128665134Y-110518110D01*
X128687661Y-110490661D01*
X128715110Y-110468134D01*
X128746431Y-110451393D01*
X128780409Y-110441085D01*
X128821890Y-110437000D01*
X129423110Y-110437000D01*
X129464591Y-110441085D01*
X129464591Y-110441085D01*
G37*
G36*
X131039591Y-110441085D02*
G01*
X131073569Y-110451393D01*
X131104890Y-110468134D01*
X131132339Y-110490661D01*
X131154866Y-110518110D01*
X131171607Y-110549431D01*
X131181915Y-110583409D01*
X131186000Y-110624890D01*
X131186000Y-111301110D01*
X131181915Y-111342591D01*
X131171607Y-111376569D01*
X131154866Y-111407890D01*
X131132339Y-111435339D01*
X131104890Y-111457866D01*
X131073569Y-111474607D01*
X131039591Y-111484915D01*
X130998110Y-111489000D01*
X130396890Y-111489000D01*
X130355409Y-111484915D01*
X130321431Y-111474607D01*
X130290110Y-111457866D01*
X130262661Y-111435339D01*
X130240134Y-111407890D01*
X130223393Y-111376569D01*
X130213085Y-111342591D01*
X130209000Y-111301110D01*
X130209000Y-110624890D01*
X130213085Y-110583409D01*
X130223393Y-110549431D01*
X130240134Y-110518110D01*
X130262661Y-110490661D01*
X130290110Y-110468134D01*
X130321431Y-110451393D01*
X130355409Y-110441085D01*
X130396890Y-110437000D01*
X130998110Y-110437000D01*
X131039591Y-110441085D01*
X131039591Y-110441085D01*
G37*
G36*
X137871591Y-110431085D02*
G01*
X137905569Y-110441393D01*
X137936890Y-110458134D01*
X137964339Y-110480661D01*
X137986866Y-110508110D01*
X138003607Y-110539431D01*
X138013915Y-110573409D01*
X138018000Y-110614890D01*
X138018000Y-111291110D01*
X138013915Y-111332591D01*
X138003607Y-111366569D01*
X137986866Y-111397890D01*
X137964339Y-111425339D01*
X137936890Y-111447866D01*
X137905569Y-111464607D01*
X137871591Y-111474915D01*
X137830110Y-111479000D01*
X137228890Y-111479000D01*
X137187409Y-111474915D01*
X137153431Y-111464607D01*
X137122110Y-111447866D01*
X137094661Y-111425339D01*
X137072134Y-111397890D01*
X137055393Y-111366569D01*
X137045085Y-111332591D01*
X137041000Y-111291110D01*
X137041000Y-110614890D01*
X137045085Y-110573409D01*
X137055393Y-110539431D01*
X137072134Y-110508110D01*
X137094661Y-110480661D01*
X137122110Y-110458134D01*
X137153431Y-110441393D01*
X137187409Y-110431085D01*
X137228890Y-110427000D01*
X137830110Y-110427000D01*
X137871591Y-110431085D01*
X137871591Y-110431085D01*
G37*
G36*
X136296591Y-110431085D02*
G01*
X136330569Y-110441393D01*
X136361890Y-110458134D01*
X136389339Y-110480661D01*
X136411866Y-110508110D01*
X136428607Y-110539431D01*
X136438915Y-110573409D01*
X136443000Y-110614890D01*
X136443000Y-111291110D01*
X136438915Y-111332591D01*
X136428607Y-111366569D01*
X136411866Y-111397890D01*
X136389339Y-111425339D01*
X136361890Y-111447866D01*
X136330569Y-111464607D01*
X136296591Y-111474915D01*
X136255110Y-111479000D01*
X135653890Y-111479000D01*
X135612409Y-111474915D01*
X135578431Y-111464607D01*
X135547110Y-111447866D01*
X135519661Y-111425339D01*
X135497134Y-111397890D01*
X135480393Y-111366569D01*
X135470085Y-111332591D01*
X135466000Y-111291110D01*
X135466000Y-110614890D01*
X135470085Y-110573409D01*
X135480393Y-110539431D01*
X135497134Y-110508110D01*
X135519661Y-110480661D01*
X135547110Y-110458134D01*
X135578431Y-110441393D01*
X135612409Y-110431085D01*
X135653890Y-110427000D01*
X136255110Y-110427000D01*
X136296591Y-110431085D01*
X136296591Y-110431085D01*
G37*
G36*
X122030443Y-108325519D02*
G01*
X122096627Y-108332037D01*
X122266466Y-108383557D01*
X122422991Y-108467222D01*
X122458729Y-108496552D01*
X122560186Y-108579814D01*
X122643448Y-108681271D01*
X122672778Y-108717009D01*
X122703985Y-108775393D01*
X122724975Y-108814661D01*
X122756443Y-108873534D01*
X122807963Y-109043373D01*
X122825359Y-109220000D01*
X122807963Y-109396627D01*
X122756443Y-109566466D01*
X122672778Y-109722991D01*
X122657620Y-109741461D01*
X122560186Y-109860186D01*
X122458729Y-109943448D01*
X122422991Y-109972778D01*
X122266466Y-110056443D01*
X122096627Y-110107963D01*
X122030443Y-110114481D01*
X121964260Y-110121000D01*
X121875740Y-110121000D01*
X121809557Y-110114481D01*
X121743373Y-110107963D01*
X121573534Y-110056443D01*
X121417009Y-109972778D01*
X121381271Y-109943448D01*
X121279814Y-109860186D01*
X121182380Y-109741461D01*
X121167222Y-109722991D01*
X121083557Y-109566466D01*
X121032037Y-109396627D01*
X121014641Y-109220000D01*
X121032037Y-109043373D01*
X121083557Y-108873534D01*
X121115026Y-108814661D01*
X121136015Y-108775393D01*
X121167222Y-108717009D01*
X121196552Y-108681271D01*
X121279814Y-108579814D01*
X121381271Y-108496552D01*
X121417009Y-108467222D01*
X121573534Y-108383557D01*
X121743373Y-108332037D01*
X121809557Y-108325519D01*
X121875740Y-108319000D01*
X121964260Y-108319000D01*
X122030443Y-108325519D01*
X122030443Y-108325519D01*
G37*
G36*
X144890443Y-108325519D02*
G01*
X144956627Y-108332037D01*
X145126466Y-108383557D01*
X145282991Y-108467222D01*
X145318729Y-108496552D01*
X145420186Y-108579814D01*
X145503448Y-108681271D01*
X145532778Y-108717009D01*
X145563985Y-108775393D01*
X145584975Y-108814661D01*
X145616443Y-108873534D01*
X145667963Y-109043373D01*
X145685359Y-109220000D01*
X145667963Y-109396627D01*
X145616443Y-109566466D01*
X145532778Y-109722991D01*
X145517620Y-109741461D01*
X145420186Y-109860186D01*
X145318729Y-109943448D01*
X145282991Y-109972778D01*
X145126466Y-110056443D01*
X144956627Y-110107963D01*
X144890443Y-110114481D01*
X144824260Y-110121000D01*
X144735740Y-110121000D01*
X144669557Y-110114481D01*
X144603373Y-110107963D01*
X144433534Y-110056443D01*
X144277009Y-109972778D01*
X144241271Y-109943448D01*
X144139814Y-109860186D01*
X144042380Y-109741461D01*
X144027222Y-109722991D01*
X143943557Y-109566466D01*
X143892037Y-109396627D01*
X143874641Y-109220000D01*
X143892037Y-109043373D01*
X143943557Y-108873534D01*
X143975026Y-108814661D01*
X143996015Y-108775393D01*
X144027222Y-108717009D01*
X144056552Y-108681271D01*
X144139814Y-108579814D01*
X144241271Y-108496552D01*
X144277009Y-108467222D01*
X144433534Y-108383557D01*
X144603373Y-108332037D01*
X144669557Y-108325519D01*
X144735740Y-108319000D01*
X144824260Y-108319000D01*
X144890443Y-108325519D01*
X144890443Y-108325519D01*
G37*
G36*
X129464591Y-108775085D02*
G01*
X129498569Y-108785393D01*
X129529890Y-108802134D01*
X129557339Y-108824661D01*
X129579866Y-108852110D01*
X129596607Y-108883431D01*
X129606915Y-108917409D01*
X129611000Y-108958890D01*
X129611000Y-109635110D01*
X129606915Y-109676591D01*
X129596607Y-109710569D01*
X129579866Y-109741890D01*
X129557339Y-109769339D01*
X129529890Y-109791866D01*
X129498569Y-109808607D01*
X129464591Y-109818915D01*
X129423110Y-109823000D01*
X128821890Y-109823000D01*
X128780409Y-109818915D01*
X128746431Y-109808607D01*
X128715110Y-109791866D01*
X128687661Y-109769339D01*
X128665134Y-109741890D01*
X128648393Y-109710569D01*
X128638085Y-109676591D01*
X128634000Y-109635110D01*
X128634000Y-108958890D01*
X128638085Y-108917409D01*
X128648393Y-108883431D01*
X128665134Y-108852110D01*
X128687661Y-108824661D01*
X128715110Y-108802134D01*
X128746431Y-108785393D01*
X128780409Y-108775085D01*
X128821890Y-108771000D01*
X129423110Y-108771000D01*
X129464591Y-108775085D01*
X129464591Y-108775085D01*
G37*
G36*
X131039591Y-108775085D02*
G01*
X131073569Y-108785393D01*
X131104890Y-108802134D01*
X131132339Y-108824661D01*
X131154866Y-108852110D01*
X131171607Y-108883431D01*
X131181915Y-108917409D01*
X131186000Y-108958890D01*
X131186000Y-109635110D01*
X131181915Y-109676591D01*
X131171607Y-109710569D01*
X131154866Y-109741890D01*
X131132339Y-109769339D01*
X131104890Y-109791866D01*
X131073569Y-109808607D01*
X131039591Y-109818915D01*
X130998110Y-109823000D01*
X130396890Y-109823000D01*
X130355409Y-109818915D01*
X130321431Y-109808607D01*
X130290110Y-109791866D01*
X130262661Y-109769339D01*
X130240134Y-109741890D01*
X130223393Y-109710569D01*
X130213085Y-109676591D01*
X130209000Y-109635110D01*
X130209000Y-108958890D01*
X130213085Y-108917409D01*
X130223393Y-108883431D01*
X130240134Y-108852110D01*
X130262661Y-108824661D01*
X130290110Y-108802134D01*
X130321431Y-108785393D01*
X130355409Y-108775085D01*
X130396890Y-108771000D01*
X130998110Y-108771000D01*
X131039591Y-108775085D01*
X131039591Y-108775085D01*
G37*
G36*
X136296591Y-108765085D02*
G01*
X136330569Y-108775393D01*
X136361890Y-108792134D01*
X136389339Y-108814661D01*
X136411866Y-108842110D01*
X136428607Y-108873431D01*
X136438915Y-108907409D01*
X136443000Y-108948890D01*
X136443000Y-109625110D01*
X136438915Y-109666591D01*
X136428607Y-109700569D01*
X136411866Y-109731890D01*
X136389339Y-109759339D01*
X136361890Y-109781866D01*
X136330569Y-109798607D01*
X136296591Y-109808915D01*
X136255110Y-109813000D01*
X135653890Y-109813000D01*
X135612409Y-109808915D01*
X135578431Y-109798607D01*
X135547110Y-109781866D01*
X135519661Y-109759339D01*
X135497134Y-109731890D01*
X135480393Y-109700569D01*
X135470085Y-109666591D01*
X135466000Y-109625110D01*
X135466000Y-108948890D01*
X135470085Y-108907409D01*
X135480393Y-108873431D01*
X135497134Y-108842110D01*
X135519661Y-108814661D01*
X135547110Y-108792134D01*
X135578431Y-108775393D01*
X135612409Y-108765085D01*
X135653890Y-108761000D01*
X136255110Y-108761000D01*
X136296591Y-108765085D01*
X136296591Y-108765085D01*
G37*
G36*
X137871591Y-108765085D02*
G01*
X137905569Y-108775393D01*
X137936890Y-108792134D01*
X137964339Y-108814661D01*
X137986866Y-108842110D01*
X138003607Y-108873431D01*
X138013915Y-108907409D01*
X138018000Y-108948890D01*
X138018000Y-109625110D01*
X138013915Y-109666591D01*
X138003607Y-109700569D01*
X137986866Y-109731890D01*
X137964339Y-109759339D01*
X137936890Y-109781866D01*
X137905569Y-109798607D01*
X137871591Y-109808915D01*
X137830110Y-109813000D01*
X137228890Y-109813000D01*
X137187409Y-109808915D01*
X137153431Y-109798607D01*
X137122110Y-109781866D01*
X137094661Y-109759339D01*
X137072134Y-109731890D01*
X137055393Y-109700569D01*
X137045085Y-109666591D01*
X137041000Y-109625110D01*
X137041000Y-108948890D01*
X137045085Y-108907409D01*
X137055393Y-108873431D01*
X137072134Y-108842110D01*
X137094661Y-108814661D01*
X137122110Y-108792134D01*
X137153431Y-108775393D01*
X137187409Y-108765085D01*
X137228890Y-108761000D01*
X137830110Y-108761000D01*
X137871591Y-108765085D01*
X137871591Y-108765085D01*
G37*
G36*
X131039591Y-107109085D02*
G01*
X131073569Y-107119393D01*
X131104890Y-107136134D01*
X131132339Y-107158661D01*
X131154866Y-107186110D01*
X131171607Y-107217431D01*
X131181915Y-107251409D01*
X131186000Y-107292890D01*
X131186000Y-107969110D01*
X131181915Y-108010591D01*
X131171607Y-108044569D01*
X131154866Y-108075890D01*
X131132339Y-108103339D01*
X131104890Y-108125866D01*
X131073569Y-108142607D01*
X131039591Y-108152915D01*
X130998110Y-108157000D01*
X130396890Y-108157000D01*
X130355409Y-108152915D01*
X130321431Y-108142607D01*
X130290110Y-108125866D01*
X130262661Y-108103339D01*
X130240134Y-108075890D01*
X130223393Y-108044569D01*
X130213085Y-108010591D01*
X130209000Y-107969110D01*
X130209000Y-107292890D01*
X130213085Y-107251409D01*
X130223393Y-107217431D01*
X130240134Y-107186110D01*
X130262661Y-107158661D01*
X130290110Y-107136134D01*
X130321431Y-107119393D01*
X130355409Y-107109085D01*
X130396890Y-107105000D01*
X130998110Y-107105000D01*
X131039591Y-107109085D01*
X131039591Y-107109085D01*
G37*
G36*
X129464591Y-107109085D02*
G01*
X129498569Y-107119393D01*
X129529890Y-107136134D01*
X129557339Y-107158661D01*
X129579866Y-107186110D01*
X129596607Y-107217431D01*
X129606915Y-107251409D01*
X129611000Y-107292890D01*
X129611000Y-107969110D01*
X129606915Y-108010591D01*
X129596607Y-108044569D01*
X129579866Y-108075890D01*
X129557339Y-108103339D01*
X129529890Y-108125866D01*
X129498569Y-108142607D01*
X129464591Y-108152915D01*
X129423110Y-108157000D01*
X128821890Y-108157000D01*
X128780409Y-108152915D01*
X128746431Y-108142607D01*
X128715110Y-108125866D01*
X128687661Y-108103339D01*
X128665134Y-108075890D01*
X128648393Y-108044569D01*
X128638085Y-108010591D01*
X128634000Y-107969110D01*
X128634000Y-107292890D01*
X128638085Y-107251409D01*
X128648393Y-107217431D01*
X128665134Y-107186110D01*
X128687661Y-107158661D01*
X128715110Y-107136134D01*
X128746431Y-107119393D01*
X128780409Y-107109085D01*
X128821890Y-107105000D01*
X129423110Y-107105000D01*
X129464591Y-107109085D01*
X129464591Y-107109085D01*
G37*
G36*
X137871591Y-107099085D02*
G01*
X137905569Y-107109393D01*
X137936890Y-107126134D01*
X137964339Y-107148661D01*
X137986866Y-107176110D01*
X138003607Y-107207431D01*
X138013915Y-107241409D01*
X138018000Y-107282890D01*
X138018000Y-107959110D01*
X138013915Y-108000591D01*
X138003607Y-108034569D01*
X137986866Y-108065890D01*
X137964339Y-108093339D01*
X137936890Y-108115866D01*
X137905569Y-108132607D01*
X137871591Y-108142915D01*
X137830110Y-108147000D01*
X137228890Y-108147000D01*
X137187409Y-108142915D01*
X137153431Y-108132607D01*
X137122110Y-108115866D01*
X137094661Y-108093339D01*
X137072134Y-108065890D01*
X137055393Y-108034569D01*
X137045085Y-108000591D01*
X137041000Y-107959110D01*
X137041000Y-107282890D01*
X137045085Y-107241409D01*
X137055393Y-107207431D01*
X137072134Y-107176110D01*
X137094661Y-107148661D01*
X137122110Y-107126134D01*
X137153431Y-107109393D01*
X137187409Y-107099085D01*
X137228890Y-107095000D01*
X137830110Y-107095000D01*
X137871591Y-107099085D01*
X137871591Y-107099085D01*
G37*
G36*
X136296591Y-107099085D02*
G01*
X136330569Y-107109393D01*
X136361890Y-107126134D01*
X136389339Y-107148661D01*
X136411866Y-107176110D01*
X136428607Y-107207431D01*
X136438915Y-107241409D01*
X136443000Y-107282890D01*
X136443000Y-107959110D01*
X136438915Y-108000591D01*
X136428607Y-108034569D01*
X136411866Y-108065890D01*
X136389339Y-108093339D01*
X136361890Y-108115866D01*
X136330569Y-108132607D01*
X136296591Y-108142915D01*
X136255110Y-108147000D01*
X135653890Y-108147000D01*
X135612409Y-108142915D01*
X135578431Y-108132607D01*
X135547110Y-108115866D01*
X135519661Y-108093339D01*
X135497134Y-108065890D01*
X135480393Y-108034569D01*
X135470085Y-108000591D01*
X135466000Y-107959110D01*
X135466000Y-107282890D01*
X135470085Y-107241409D01*
X135480393Y-107207431D01*
X135497134Y-107176110D01*
X135519661Y-107148661D01*
X135547110Y-107126134D01*
X135578431Y-107109393D01*
X135612409Y-107099085D01*
X135653890Y-107095000D01*
X136255110Y-107095000D01*
X136296591Y-107099085D01*
X136296591Y-107099085D01*
G37*
G36*
X144890443Y-105785519D02*
G01*
X144956627Y-105792037D01*
X145126466Y-105843557D01*
X145282991Y-105927222D01*
X145318729Y-105956552D01*
X145420186Y-106039814D01*
X145503448Y-106141271D01*
X145532778Y-106177009D01*
X145616443Y-106333534D01*
X145667963Y-106503373D01*
X145685359Y-106680000D01*
X145667963Y-106856627D01*
X145616443Y-107026466D01*
X145532778Y-107182991D01*
X145530218Y-107186110D01*
X145420186Y-107320186D01*
X145318729Y-107403448D01*
X145282991Y-107432778D01*
X145126466Y-107516443D01*
X144956627Y-107567963D01*
X144890443Y-107574481D01*
X144824260Y-107581000D01*
X144735740Y-107581000D01*
X144669557Y-107574481D01*
X144603373Y-107567963D01*
X144433534Y-107516443D01*
X144277009Y-107432778D01*
X144241271Y-107403448D01*
X144139814Y-107320186D01*
X144029782Y-107186110D01*
X144027222Y-107182991D01*
X143943557Y-107026466D01*
X143892037Y-106856627D01*
X143874641Y-106680000D01*
X143892037Y-106503373D01*
X143943557Y-106333534D01*
X144027222Y-106177009D01*
X144056552Y-106141271D01*
X144139814Y-106039814D01*
X144241271Y-105956552D01*
X144277009Y-105927222D01*
X144433534Y-105843557D01*
X144603373Y-105792037D01*
X144669557Y-105785519D01*
X144735740Y-105779000D01*
X144824260Y-105779000D01*
X144890443Y-105785519D01*
X144890443Y-105785519D01*
G37*
G36*
X122030443Y-105785519D02*
G01*
X122096627Y-105792037D01*
X122266466Y-105843557D01*
X122422991Y-105927222D01*
X122458729Y-105956552D01*
X122560186Y-106039814D01*
X122643448Y-106141271D01*
X122672778Y-106177009D01*
X122756443Y-106333534D01*
X122807963Y-106503373D01*
X122825359Y-106680000D01*
X122807963Y-106856627D01*
X122756443Y-107026466D01*
X122672778Y-107182991D01*
X122670218Y-107186110D01*
X122560186Y-107320186D01*
X122458729Y-107403448D01*
X122422991Y-107432778D01*
X122266466Y-107516443D01*
X122096627Y-107567963D01*
X122030443Y-107574481D01*
X121964260Y-107581000D01*
X121875740Y-107581000D01*
X121809557Y-107574481D01*
X121743373Y-107567963D01*
X121573534Y-107516443D01*
X121417009Y-107432778D01*
X121381271Y-107403448D01*
X121279814Y-107320186D01*
X121169782Y-107186110D01*
X121167222Y-107182991D01*
X121083557Y-107026466D01*
X121032037Y-106856627D01*
X121014641Y-106680000D01*
X121032037Y-106503373D01*
X121083557Y-106333534D01*
X121167222Y-106177009D01*
X121196552Y-106141271D01*
X121279814Y-106039814D01*
X121381271Y-105956552D01*
X121417009Y-105927222D01*
X121573534Y-105843557D01*
X121743373Y-105792037D01*
X121809557Y-105785519D01*
X121875740Y-105779000D01*
X121964260Y-105779000D01*
X122030443Y-105785519D01*
X122030443Y-105785519D01*
G37*
G36*
X131039591Y-105443085D02*
G01*
X131073569Y-105453393D01*
X131104890Y-105470134D01*
X131132339Y-105492661D01*
X131154866Y-105520110D01*
X131171607Y-105551431D01*
X131181915Y-105585409D01*
X131186000Y-105626890D01*
X131186000Y-106303110D01*
X131181915Y-106344591D01*
X131171607Y-106378569D01*
X131154866Y-106409890D01*
X131132339Y-106437339D01*
X131104890Y-106459866D01*
X131073569Y-106476607D01*
X131039591Y-106486915D01*
X130998110Y-106491000D01*
X130396890Y-106491000D01*
X130355409Y-106486915D01*
X130321431Y-106476607D01*
X130290110Y-106459866D01*
X130262661Y-106437339D01*
X130240134Y-106409890D01*
X130223393Y-106378569D01*
X130213085Y-106344591D01*
X130209000Y-106303110D01*
X130209000Y-105626890D01*
X130213085Y-105585409D01*
X130223393Y-105551431D01*
X130240134Y-105520110D01*
X130262661Y-105492661D01*
X130290110Y-105470134D01*
X130321431Y-105453393D01*
X130355409Y-105443085D01*
X130396890Y-105439000D01*
X130998110Y-105439000D01*
X131039591Y-105443085D01*
X131039591Y-105443085D01*
G37*
G36*
X129464591Y-105443085D02*
G01*
X129498569Y-105453393D01*
X129529890Y-105470134D01*
X129557339Y-105492661D01*
X129579866Y-105520110D01*
X129596607Y-105551431D01*
X129606915Y-105585409D01*
X129611000Y-105626890D01*
X129611000Y-106303110D01*
X129606915Y-106344591D01*
X129596607Y-106378569D01*
X129579866Y-106409890D01*
X129557339Y-106437339D01*
X129529890Y-106459866D01*
X129498569Y-106476607D01*
X129464591Y-106486915D01*
X129423110Y-106491000D01*
X128821890Y-106491000D01*
X128780409Y-106486915D01*
X128746431Y-106476607D01*
X128715110Y-106459866D01*
X128687661Y-106437339D01*
X128665134Y-106409890D01*
X128648393Y-106378569D01*
X128638085Y-106344591D01*
X128634000Y-106303110D01*
X128634000Y-105626890D01*
X128638085Y-105585409D01*
X128648393Y-105551431D01*
X128665134Y-105520110D01*
X128687661Y-105492661D01*
X128715110Y-105470134D01*
X128746431Y-105453393D01*
X128780409Y-105443085D01*
X128821890Y-105439000D01*
X129423110Y-105439000D01*
X129464591Y-105443085D01*
X129464591Y-105443085D01*
G37*
G36*
X136296591Y-105433085D02*
G01*
X136330569Y-105443393D01*
X136361890Y-105460134D01*
X136389339Y-105482661D01*
X136411866Y-105510110D01*
X136428607Y-105541431D01*
X136438915Y-105575409D01*
X136443000Y-105616890D01*
X136443000Y-106293110D01*
X136438915Y-106334591D01*
X136428607Y-106368569D01*
X136411866Y-106399890D01*
X136389339Y-106427339D01*
X136361890Y-106449866D01*
X136330569Y-106466607D01*
X136296591Y-106476915D01*
X136255110Y-106481000D01*
X135653890Y-106481000D01*
X135612409Y-106476915D01*
X135578431Y-106466607D01*
X135547110Y-106449866D01*
X135519661Y-106427339D01*
X135497134Y-106399890D01*
X135480393Y-106368569D01*
X135470085Y-106334591D01*
X135466000Y-106293110D01*
X135466000Y-105616890D01*
X135470085Y-105575409D01*
X135480393Y-105541431D01*
X135497134Y-105510110D01*
X135519661Y-105482661D01*
X135547110Y-105460134D01*
X135578431Y-105443393D01*
X135612409Y-105433085D01*
X135653890Y-105429000D01*
X136255110Y-105429000D01*
X136296591Y-105433085D01*
X136296591Y-105433085D01*
G37*
G36*
X137871591Y-105433085D02*
G01*
X137905569Y-105443393D01*
X137936890Y-105460134D01*
X137964339Y-105482661D01*
X137986866Y-105510110D01*
X138003607Y-105541431D01*
X138013915Y-105575409D01*
X138018000Y-105616890D01*
X138018000Y-106293110D01*
X138013915Y-106334591D01*
X138003607Y-106368569D01*
X137986866Y-106399890D01*
X137964339Y-106427339D01*
X137936890Y-106449866D01*
X137905569Y-106466607D01*
X137871591Y-106476915D01*
X137830110Y-106481000D01*
X137228890Y-106481000D01*
X137187409Y-106476915D01*
X137153431Y-106466607D01*
X137122110Y-106449866D01*
X137094661Y-106427339D01*
X137072134Y-106399890D01*
X137055393Y-106368569D01*
X137045085Y-106334591D01*
X137041000Y-106293110D01*
X137041000Y-105616890D01*
X137045085Y-105575409D01*
X137055393Y-105541431D01*
X137072134Y-105510110D01*
X137094661Y-105482661D01*
X137122110Y-105460134D01*
X137153431Y-105443393D01*
X137187409Y-105433085D01*
X137228890Y-105429000D01*
X137830110Y-105429000D01*
X137871591Y-105433085D01*
X137871591Y-105433085D01*
G37*
G36*
X144890443Y-103245519D02*
G01*
X144956627Y-103252037D01*
X145126466Y-103303557D01*
X145282991Y-103387222D01*
X145318729Y-103416552D01*
X145420186Y-103499814D01*
X145503448Y-103601271D01*
X145532778Y-103637009D01*
X145616443Y-103793534D01*
X145667963Y-103963373D01*
X145685359Y-104140000D01*
X145667963Y-104316627D01*
X145616443Y-104486466D01*
X145532778Y-104642991D01*
X145511768Y-104668591D01*
X145420186Y-104780186D01*
X145318729Y-104863448D01*
X145282991Y-104892778D01*
X145126466Y-104976443D01*
X144956627Y-105027963D01*
X144890442Y-105034482D01*
X144824260Y-105041000D01*
X144735740Y-105041000D01*
X144669557Y-105034481D01*
X144603373Y-105027963D01*
X144433534Y-104976443D01*
X144277009Y-104892778D01*
X144241271Y-104863448D01*
X144139814Y-104780186D01*
X144048232Y-104668591D01*
X144027222Y-104642991D01*
X143943557Y-104486466D01*
X143892037Y-104316627D01*
X143874641Y-104140000D01*
X143892037Y-103963373D01*
X143943557Y-103793534D01*
X144027222Y-103637009D01*
X144056552Y-103601271D01*
X144139814Y-103499814D01*
X144241271Y-103416552D01*
X144277009Y-103387222D01*
X144433534Y-103303557D01*
X144603373Y-103252037D01*
X144669558Y-103245518D01*
X144735740Y-103239000D01*
X144824260Y-103239000D01*
X144890443Y-103245519D01*
X144890443Y-103245519D01*
G37*
G36*
X122030443Y-103245519D02*
G01*
X122096627Y-103252037D01*
X122266466Y-103303557D01*
X122422991Y-103387222D01*
X122458729Y-103416552D01*
X122560186Y-103499814D01*
X122643448Y-103601271D01*
X122672778Y-103637009D01*
X122756443Y-103793534D01*
X122807963Y-103963373D01*
X122825359Y-104140000D01*
X122807963Y-104316627D01*
X122756443Y-104486466D01*
X122672778Y-104642991D01*
X122651768Y-104668591D01*
X122560186Y-104780186D01*
X122458729Y-104863448D01*
X122422991Y-104892778D01*
X122266466Y-104976443D01*
X122096627Y-105027963D01*
X122030442Y-105034482D01*
X121964260Y-105041000D01*
X121875740Y-105041000D01*
X121809557Y-105034481D01*
X121743373Y-105027963D01*
X121573534Y-104976443D01*
X121417009Y-104892778D01*
X121381271Y-104863448D01*
X121279814Y-104780186D01*
X121188232Y-104668591D01*
X121167222Y-104642991D01*
X121083557Y-104486466D01*
X121032037Y-104316627D01*
X121014641Y-104140000D01*
X121032037Y-103963373D01*
X121083557Y-103793534D01*
X121167222Y-103637009D01*
X121196552Y-103601271D01*
X121279814Y-103499814D01*
X121381271Y-103416552D01*
X121417009Y-103387222D01*
X121573534Y-103303557D01*
X121743373Y-103252037D01*
X121809558Y-103245518D01*
X121875740Y-103239000D01*
X121964260Y-103239000D01*
X122030443Y-103245519D01*
X122030443Y-103245519D01*
G37*
G36*
X129464591Y-103777085D02*
G01*
X129498569Y-103787393D01*
X129529890Y-103804134D01*
X129557339Y-103826661D01*
X129579866Y-103854110D01*
X129596607Y-103885431D01*
X129606915Y-103919409D01*
X129611000Y-103960890D01*
X129611000Y-104637110D01*
X129606915Y-104678591D01*
X129596607Y-104712569D01*
X129579866Y-104743890D01*
X129557339Y-104771339D01*
X129529890Y-104793866D01*
X129498569Y-104810607D01*
X129464591Y-104820915D01*
X129423110Y-104825000D01*
X128821890Y-104825000D01*
X128780409Y-104820915D01*
X128746431Y-104810607D01*
X128715110Y-104793866D01*
X128687661Y-104771339D01*
X128665134Y-104743890D01*
X128648393Y-104712569D01*
X128638085Y-104678591D01*
X128634000Y-104637110D01*
X128634000Y-103960890D01*
X128638085Y-103919409D01*
X128648393Y-103885431D01*
X128665134Y-103854110D01*
X128687661Y-103826661D01*
X128715110Y-103804134D01*
X128746431Y-103787393D01*
X128780409Y-103777085D01*
X128821890Y-103773000D01*
X129423110Y-103773000D01*
X129464591Y-103777085D01*
X129464591Y-103777085D01*
G37*
G36*
X131039591Y-103777085D02*
G01*
X131073569Y-103787393D01*
X131104890Y-103804134D01*
X131132339Y-103826661D01*
X131154866Y-103854110D01*
X131171607Y-103885431D01*
X131181915Y-103919409D01*
X131186000Y-103960890D01*
X131186000Y-104637110D01*
X131181915Y-104678591D01*
X131171607Y-104712569D01*
X131154866Y-104743890D01*
X131132339Y-104771339D01*
X131104890Y-104793866D01*
X131073569Y-104810607D01*
X131039591Y-104820915D01*
X130998110Y-104825000D01*
X130396890Y-104825000D01*
X130355409Y-104820915D01*
X130321431Y-104810607D01*
X130290110Y-104793866D01*
X130262661Y-104771339D01*
X130240134Y-104743890D01*
X130223393Y-104712569D01*
X130213085Y-104678591D01*
X130209000Y-104637110D01*
X130209000Y-103960890D01*
X130213085Y-103919409D01*
X130223393Y-103885431D01*
X130240134Y-103854110D01*
X130262661Y-103826661D01*
X130290110Y-103804134D01*
X130321431Y-103787393D01*
X130355409Y-103777085D01*
X130396890Y-103773000D01*
X130998110Y-103773000D01*
X131039591Y-103777085D01*
X131039591Y-103777085D01*
G37*
G36*
X137871591Y-103767085D02*
G01*
X137905569Y-103777393D01*
X137936890Y-103794134D01*
X137964339Y-103816661D01*
X137986866Y-103844110D01*
X138003607Y-103875431D01*
X138013915Y-103909409D01*
X138018000Y-103950890D01*
X138018000Y-104627110D01*
X138013915Y-104668591D01*
X138003607Y-104702569D01*
X137986866Y-104733890D01*
X137964339Y-104761339D01*
X137936890Y-104783866D01*
X137905569Y-104800607D01*
X137871591Y-104810915D01*
X137830110Y-104815000D01*
X137228890Y-104815000D01*
X137187409Y-104810915D01*
X137153431Y-104800607D01*
X137122110Y-104783866D01*
X137094661Y-104761339D01*
X137072134Y-104733890D01*
X137055393Y-104702569D01*
X137045085Y-104668591D01*
X137041000Y-104627110D01*
X137041000Y-103950890D01*
X137045085Y-103909409D01*
X137055393Y-103875431D01*
X137072134Y-103844110D01*
X137094661Y-103816661D01*
X137122110Y-103794134D01*
X137153431Y-103777393D01*
X137187409Y-103767085D01*
X137228890Y-103763000D01*
X137830110Y-103763000D01*
X137871591Y-103767085D01*
X137871591Y-103767085D01*
G37*
G36*
X136296591Y-103767085D02*
G01*
X136330569Y-103777393D01*
X136361890Y-103794134D01*
X136389339Y-103816661D01*
X136411866Y-103844110D01*
X136428607Y-103875431D01*
X136438915Y-103909409D01*
X136443000Y-103950890D01*
X136443000Y-104627110D01*
X136438915Y-104668591D01*
X136428607Y-104702569D01*
X136411866Y-104733890D01*
X136389339Y-104761339D01*
X136361890Y-104783866D01*
X136330569Y-104800607D01*
X136296591Y-104810915D01*
X136255110Y-104815000D01*
X135653890Y-104815000D01*
X135612409Y-104810915D01*
X135578431Y-104800607D01*
X135547110Y-104783866D01*
X135519661Y-104761339D01*
X135497134Y-104733890D01*
X135480393Y-104702569D01*
X135470085Y-104668591D01*
X135466000Y-104627110D01*
X135466000Y-103950890D01*
X135470085Y-103909409D01*
X135480393Y-103875431D01*
X135497134Y-103844110D01*
X135519661Y-103816661D01*
X135547110Y-103794134D01*
X135578431Y-103777393D01*
X135612409Y-103767085D01*
X135653890Y-103763000D01*
X136255110Y-103763000D01*
X136296591Y-103767085D01*
X136296591Y-103767085D01*
G37*
G36*
X131039591Y-102112085D02*
G01*
X131073569Y-102122393D01*
X131104890Y-102139134D01*
X131132339Y-102161661D01*
X131154866Y-102189110D01*
X131171607Y-102220431D01*
X131181915Y-102254409D01*
X131186000Y-102295890D01*
X131186000Y-102972110D01*
X131181915Y-103013591D01*
X131171607Y-103047569D01*
X131154866Y-103078890D01*
X131132339Y-103106339D01*
X131104890Y-103128866D01*
X131073569Y-103145607D01*
X131039591Y-103155915D01*
X130998110Y-103160000D01*
X130396890Y-103160000D01*
X130355409Y-103155915D01*
X130321431Y-103145607D01*
X130290110Y-103128866D01*
X130262661Y-103106339D01*
X130240134Y-103078890D01*
X130223393Y-103047569D01*
X130213085Y-103013591D01*
X130209000Y-102972110D01*
X130209000Y-102295890D01*
X130213085Y-102254409D01*
X130223393Y-102220431D01*
X130240134Y-102189110D01*
X130262661Y-102161661D01*
X130290110Y-102139134D01*
X130321431Y-102122393D01*
X130355409Y-102112085D01*
X130396890Y-102108000D01*
X130998110Y-102108000D01*
X131039591Y-102112085D01*
X131039591Y-102112085D01*
G37*
G36*
X129464591Y-102112085D02*
G01*
X129498569Y-102122393D01*
X129529890Y-102139134D01*
X129557339Y-102161661D01*
X129579866Y-102189110D01*
X129596607Y-102220431D01*
X129606915Y-102254409D01*
X129611000Y-102295890D01*
X129611000Y-102972110D01*
X129606915Y-103013591D01*
X129596607Y-103047569D01*
X129579866Y-103078890D01*
X129557339Y-103106339D01*
X129529890Y-103128866D01*
X129498569Y-103145607D01*
X129464591Y-103155915D01*
X129423110Y-103160000D01*
X128821890Y-103160000D01*
X128780409Y-103155915D01*
X128746431Y-103145607D01*
X128715110Y-103128866D01*
X128687661Y-103106339D01*
X128665134Y-103078890D01*
X128648393Y-103047569D01*
X128638085Y-103013591D01*
X128634000Y-102972110D01*
X128634000Y-102295890D01*
X128638085Y-102254409D01*
X128648393Y-102220431D01*
X128665134Y-102189110D01*
X128687661Y-102161661D01*
X128715110Y-102139134D01*
X128746431Y-102122393D01*
X128780409Y-102112085D01*
X128821890Y-102108000D01*
X129423110Y-102108000D01*
X129464591Y-102112085D01*
X129464591Y-102112085D01*
G37*
G36*
X137871591Y-102102085D02*
G01*
X137905569Y-102112393D01*
X137936890Y-102129134D01*
X137964339Y-102151661D01*
X137986866Y-102179110D01*
X138003607Y-102210431D01*
X138013915Y-102244409D01*
X138018000Y-102285890D01*
X138018000Y-102962110D01*
X138013915Y-103003591D01*
X138003607Y-103037569D01*
X137986866Y-103068890D01*
X137964339Y-103096339D01*
X137936890Y-103118866D01*
X137905569Y-103135607D01*
X137871591Y-103145915D01*
X137830110Y-103150000D01*
X137228890Y-103150000D01*
X137187409Y-103145915D01*
X137153431Y-103135607D01*
X137122110Y-103118866D01*
X137094661Y-103096339D01*
X137072134Y-103068890D01*
X137055393Y-103037569D01*
X137045085Y-103003591D01*
X137041000Y-102962110D01*
X137041000Y-102285890D01*
X137045085Y-102244409D01*
X137055393Y-102210431D01*
X137072134Y-102179110D01*
X137094661Y-102151661D01*
X137122110Y-102129134D01*
X137153431Y-102112393D01*
X137187409Y-102102085D01*
X137228890Y-102098000D01*
X137830110Y-102098000D01*
X137871591Y-102102085D01*
X137871591Y-102102085D01*
G37*
G36*
X136296591Y-102102085D02*
G01*
X136330569Y-102112393D01*
X136361890Y-102129134D01*
X136389339Y-102151661D01*
X136411866Y-102179110D01*
X136428607Y-102210431D01*
X136438915Y-102244409D01*
X136443000Y-102285890D01*
X136443000Y-102962110D01*
X136438915Y-103003591D01*
X136428607Y-103037569D01*
X136411866Y-103068890D01*
X136389339Y-103096339D01*
X136361890Y-103118866D01*
X136330569Y-103135607D01*
X136296591Y-103145915D01*
X136255110Y-103150000D01*
X135653890Y-103150000D01*
X135612409Y-103145915D01*
X135578431Y-103135607D01*
X135547110Y-103118866D01*
X135519661Y-103096339D01*
X135497134Y-103068890D01*
X135480393Y-103037569D01*
X135470085Y-103003591D01*
X135466000Y-102962110D01*
X135466000Y-102285890D01*
X135470085Y-102244409D01*
X135480393Y-102210431D01*
X135497134Y-102179110D01*
X135519661Y-102151661D01*
X135547110Y-102129134D01*
X135578431Y-102112393D01*
X135612409Y-102102085D01*
X135653890Y-102098000D01*
X136255110Y-102098000D01*
X136296591Y-102102085D01*
X136296591Y-102102085D01*
G37*
G36*
X144890443Y-100705519D02*
G01*
X144956627Y-100712037D01*
X145126466Y-100763557D01*
X145282991Y-100847222D01*
X145318729Y-100876552D01*
X145420186Y-100959814D01*
X145503448Y-101061271D01*
X145532778Y-101097009D01*
X145616443Y-101253534D01*
X145667963Y-101423373D01*
X145685359Y-101600000D01*
X145667963Y-101776627D01*
X145616443Y-101946466D01*
X145532778Y-102102991D01*
X145516855Y-102122393D01*
X145420186Y-102240186D01*
X145352309Y-102295890D01*
X145282991Y-102352778D01*
X145126466Y-102436443D01*
X144956627Y-102487963D01*
X144890442Y-102494482D01*
X144824260Y-102501000D01*
X144735740Y-102501000D01*
X144669558Y-102494482D01*
X144603373Y-102487963D01*
X144433534Y-102436443D01*
X144277009Y-102352778D01*
X144207691Y-102295890D01*
X144139814Y-102240186D01*
X144043145Y-102122393D01*
X144027222Y-102102991D01*
X143943557Y-101946466D01*
X143892037Y-101776627D01*
X143874641Y-101600000D01*
X143892037Y-101423373D01*
X143943557Y-101253534D01*
X144027222Y-101097009D01*
X144056552Y-101061271D01*
X144139814Y-100959814D01*
X144241271Y-100876552D01*
X144277009Y-100847222D01*
X144433534Y-100763557D01*
X144603373Y-100712037D01*
X144669557Y-100705519D01*
X144735740Y-100699000D01*
X144824260Y-100699000D01*
X144890443Y-100705519D01*
X144890443Y-100705519D01*
G37*
G36*
X122030443Y-100705519D02*
G01*
X122096627Y-100712037D01*
X122266466Y-100763557D01*
X122422991Y-100847222D01*
X122458729Y-100876552D01*
X122560186Y-100959814D01*
X122643448Y-101061271D01*
X122672778Y-101097009D01*
X122756443Y-101253534D01*
X122807963Y-101423373D01*
X122825359Y-101600000D01*
X122807963Y-101776627D01*
X122756443Y-101946466D01*
X122672778Y-102102991D01*
X122656855Y-102122393D01*
X122560186Y-102240186D01*
X122492309Y-102295890D01*
X122422991Y-102352778D01*
X122266466Y-102436443D01*
X122096627Y-102487963D01*
X122030442Y-102494482D01*
X121964260Y-102501000D01*
X121875740Y-102501000D01*
X121809558Y-102494482D01*
X121743373Y-102487963D01*
X121573534Y-102436443D01*
X121417009Y-102352778D01*
X121347691Y-102295890D01*
X121279814Y-102240186D01*
X121183145Y-102122393D01*
X121167222Y-102102991D01*
X121083557Y-101946466D01*
X121032037Y-101776627D01*
X121014641Y-101600000D01*
X121032037Y-101423373D01*
X121083557Y-101253534D01*
X121167222Y-101097009D01*
X121196552Y-101061271D01*
X121279814Y-100959814D01*
X121381271Y-100876552D01*
X121417009Y-100847222D01*
X121573534Y-100763557D01*
X121743373Y-100712037D01*
X121809557Y-100705519D01*
X121875740Y-100699000D01*
X121964260Y-100699000D01*
X122030443Y-100705519D01*
X122030443Y-100705519D01*
G37*
G36*
X129464591Y-100446085D02*
G01*
X129498569Y-100456393D01*
X129529890Y-100473134D01*
X129557339Y-100495661D01*
X129579866Y-100523110D01*
X129596607Y-100554431D01*
X129606915Y-100588409D01*
X129611000Y-100629890D01*
X129611000Y-101306110D01*
X129606915Y-101347591D01*
X129596607Y-101381569D01*
X129579866Y-101412890D01*
X129557339Y-101440339D01*
X129529890Y-101462866D01*
X129498569Y-101479607D01*
X129464591Y-101489915D01*
X129423110Y-101494000D01*
X128821890Y-101494000D01*
X128780409Y-101489915D01*
X128746431Y-101479607D01*
X128715110Y-101462866D01*
X128687661Y-101440339D01*
X128665134Y-101412890D01*
X128648393Y-101381569D01*
X128638085Y-101347591D01*
X128634000Y-101306110D01*
X128634000Y-100629890D01*
X128638085Y-100588409D01*
X128648393Y-100554431D01*
X128665134Y-100523110D01*
X128687661Y-100495661D01*
X128715110Y-100473134D01*
X128746431Y-100456393D01*
X128780409Y-100446085D01*
X128821890Y-100442000D01*
X129423110Y-100442000D01*
X129464591Y-100446085D01*
X129464591Y-100446085D01*
G37*
G36*
X131039591Y-100446085D02*
G01*
X131073569Y-100456393D01*
X131104890Y-100473134D01*
X131132339Y-100495661D01*
X131154866Y-100523110D01*
X131171607Y-100554431D01*
X131181915Y-100588409D01*
X131186000Y-100629890D01*
X131186000Y-101306110D01*
X131181915Y-101347591D01*
X131171607Y-101381569D01*
X131154866Y-101412890D01*
X131132339Y-101440339D01*
X131104890Y-101462866D01*
X131073569Y-101479607D01*
X131039591Y-101489915D01*
X130998110Y-101494000D01*
X130396890Y-101494000D01*
X130355409Y-101489915D01*
X130321431Y-101479607D01*
X130290110Y-101462866D01*
X130262661Y-101440339D01*
X130240134Y-101412890D01*
X130223393Y-101381569D01*
X130213085Y-101347591D01*
X130209000Y-101306110D01*
X130209000Y-100629890D01*
X130213085Y-100588409D01*
X130223393Y-100554431D01*
X130240134Y-100523110D01*
X130262661Y-100495661D01*
X130290110Y-100473134D01*
X130321431Y-100456393D01*
X130355409Y-100446085D01*
X130396890Y-100442000D01*
X130998110Y-100442000D01*
X131039591Y-100446085D01*
X131039591Y-100446085D01*
G37*
G36*
X136296591Y-100436085D02*
G01*
X136330569Y-100446393D01*
X136361890Y-100463134D01*
X136389339Y-100485661D01*
X136411866Y-100513110D01*
X136428607Y-100544431D01*
X136438915Y-100578409D01*
X136443000Y-100619890D01*
X136443000Y-101296110D01*
X136438915Y-101337591D01*
X136428607Y-101371569D01*
X136411866Y-101402890D01*
X136389339Y-101430339D01*
X136361890Y-101452866D01*
X136330569Y-101469607D01*
X136296591Y-101479915D01*
X136255110Y-101484000D01*
X135653890Y-101484000D01*
X135612409Y-101479915D01*
X135578431Y-101469607D01*
X135547110Y-101452866D01*
X135519661Y-101430339D01*
X135497134Y-101402890D01*
X135480393Y-101371569D01*
X135470085Y-101337591D01*
X135466000Y-101296110D01*
X135466000Y-100619890D01*
X135470085Y-100578409D01*
X135480393Y-100544431D01*
X135497134Y-100513110D01*
X135519661Y-100485661D01*
X135547110Y-100463134D01*
X135578431Y-100446393D01*
X135612409Y-100436085D01*
X135653890Y-100432000D01*
X136255110Y-100432000D01*
X136296591Y-100436085D01*
X136296591Y-100436085D01*
G37*
G36*
X137871591Y-100436085D02*
G01*
X137905569Y-100446393D01*
X137936890Y-100463134D01*
X137964339Y-100485661D01*
X137986866Y-100513110D01*
X138003607Y-100544431D01*
X138013915Y-100578409D01*
X138018000Y-100619890D01*
X138018000Y-101296110D01*
X138013915Y-101337591D01*
X138003607Y-101371569D01*
X137986866Y-101402890D01*
X137964339Y-101430339D01*
X137936890Y-101452866D01*
X137905569Y-101469607D01*
X137871591Y-101479915D01*
X137830110Y-101484000D01*
X137228890Y-101484000D01*
X137187409Y-101479915D01*
X137153431Y-101469607D01*
X137122110Y-101452866D01*
X137094661Y-101430339D01*
X137072134Y-101402890D01*
X137055393Y-101371569D01*
X137045085Y-101337591D01*
X137041000Y-101296110D01*
X137041000Y-100619890D01*
X137045085Y-100578409D01*
X137055393Y-100544431D01*
X137072134Y-100513110D01*
X137094661Y-100485661D01*
X137122110Y-100463134D01*
X137153431Y-100446393D01*
X137187409Y-100436085D01*
X137228890Y-100432000D01*
X137830110Y-100432000D01*
X137871591Y-100436085D01*
X137871591Y-100436085D01*
G37*
G36*
X144890443Y-98165519D02*
G01*
X144956627Y-98172037D01*
X145126466Y-98223557D01*
X145282991Y-98307222D01*
X145318729Y-98336552D01*
X145420186Y-98419814D01*
X145503448Y-98521271D01*
X145532778Y-98557009D01*
X145616443Y-98713534D01*
X145667963Y-98883373D01*
X145685359Y-99060000D01*
X145667963Y-99236627D01*
X145616443Y-99406466D01*
X145532778Y-99562991D01*
X145523866Y-99573850D01*
X145420186Y-99700186D01*
X145341892Y-99764439D01*
X145282991Y-99812778D01*
X145126466Y-99896443D01*
X144956627Y-99947963D01*
X144890443Y-99954481D01*
X144824260Y-99961000D01*
X144735740Y-99961000D01*
X144669557Y-99954481D01*
X144603373Y-99947963D01*
X144433534Y-99896443D01*
X144277009Y-99812778D01*
X144218108Y-99764439D01*
X144139814Y-99700186D01*
X144036134Y-99573850D01*
X144027222Y-99562991D01*
X143943557Y-99406466D01*
X143892037Y-99236627D01*
X143874641Y-99060000D01*
X143892037Y-98883373D01*
X143943557Y-98713534D01*
X144027222Y-98557009D01*
X144056552Y-98521271D01*
X144139814Y-98419814D01*
X144241271Y-98336552D01*
X144277009Y-98307222D01*
X144433534Y-98223557D01*
X144603373Y-98172037D01*
X144669557Y-98165519D01*
X144735740Y-98159000D01*
X144824260Y-98159000D01*
X144890443Y-98165519D01*
X144890443Y-98165519D01*
G37*
G36*
X122030443Y-98165519D02*
G01*
X122096627Y-98172037D01*
X122266466Y-98223557D01*
X122422991Y-98307222D01*
X122458729Y-98336552D01*
X122560186Y-98419814D01*
X122643448Y-98521271D01*
X122672778Y-98557009D01*
X122756443Y-98713534D01*
X122807963Y-98883373D01*
X122825359Y-99060000D01*
X122807963Y-99236627D01*
X122756443Y-99406466D01*
X122672778Y-99562991D01*
X122663866Y-99573850D01*
X122560186Y-99700186D01*
X122481892Y-99764439D01*
X122422991Y-99812778D01*
X122266466Y-99896443D01*
X122096627Y-99947963D01*
X122030443Y-99954481D01*
X121964260Y-99961000D01*
X121875740Y-99961000D01*
X121809557Y-99954481D01*
X121743373Y-99947963D01*
X121573534Y-99896443D01*
X121417009Y-99812778D01*
X121358108Y-99764439D01*
X121279814Y-99700186D01*
X121176134Y-99573850D01*
X121167222Y-99562991D01*
X121083557Y-99406466D01*
X121032037Y-99236627D01*
X121014641Y-99060000D01*
X121032037Y-98883373D01*
X121083557Y-98713534D01*
X121167222Y-98557009D01*
X121196552Y-98521271D01*
X121279814Y-98419814D01*
X121381271Y-98336552D01*
X121417009Y-98307222D01*
X121573534Y-98223557D01*
X121743373Y-98172037D01*
X121809557Y-98165519D01*
X121875740Y-98159000D01*
X121964260Y-98159000D01*
X122030443Y-98165519D01*
X122030443Y-98165519D01*
G37*
G36*
X129464591Y-98780185D02*
G01*
X129498569Y-98790493D01*
X129529890Y-98807234D01*
X129557339Y-98829761D01*
X129579866Y-98857210D01*
X129596607Y-98888531D01*
X129606915Y-98922509D01*
X129611000Y-98963990D01*
X129611000Y-99640210D01*
X129606915Y-99681691D01*
X129596607Y-99715669D01*
X129579866Y-99746990D01*
X129557339Y-99774439D01*
X129529890Y-99796966D01*
X129498569Y-99813707D01*
X129464591Y-99824015D01*
X129423110Y-99828100D01*
X128821890Y-99828100D01*
X128780409Y-99824015D01*
X128746431Y-99813707D01*
X128715110Y-99796966D01*
X128687661Y-99774439D01*
X128665134Y-99746990D01*
X128648393Y-99715669D01*
X128638085Y-99681691D01*
X128634000Y-99640210D01*
X128634000Y-98963990D01*
X128638085Y-98922509D01*
X128648393Y-98888531D01*
X128665134Y-98857210D01*
X128687661Y-98829761D01*
X128715110Y-98807234D01*
X128746431Y-98790493D01*
X128780409Y-98780185D01*
X128821890Y-98776100D01*
X129423110Y-98776100D01*
X129464591Y-98780185D01*
X129464591Y-98780185D01*
G37*
G36*
X131039591Y-98780185D02*
G01*
X131073569Y-98790493D01*
X131104890Y-98807234D01*
X131132339Y-98829761D01*
X131154866Y-98857210D01*
X131171607Y-98888531D01*
X131181915Y-98922509D01*
X131186000Y-98963990D01*
X131186000Y-99640210D01*
X131181915Y-99681691D01*
X131171607Y-99715669D01*
X131154866Y-99746990D01*
X131132339Y-99774439D01*
X131104890Y-99796966D01*
X131073569Y-99813707D01*
X131039591Y-99824015D01*
X130998110Y-99828100D01*
X130396890Y-99828100D01*
X130355409Y-99824015D01*
X130321431Y-99813707D01*
X130290110Y-99796966D01*
X130262661Y-99774439D01*
X130240134Y-99746990D01*
X130223393Y-99715669D01*
X130213085Y-99681691D01*
X130209000Y-99640210D01*
X130209000Y-98963990D01*
X130213085Y-98922509D01*
X130223393Y-98888531D01*
X130240134Y-98857210D01*
X130262661Y-98829761D01*
X130290110Y-98807234D01*
X130321431Y-98790493D01*
X130355409Y-98780185D01*
X130396890Y-98776100D01*
X130998110Y-98776100D01*
X131039591Y-98780185D01*
X131039591Y-98780185D01*
G37*
G36*
X136296591Y-98770185D02*
G01*
X136330569Y-98780493D01*
X136361890Y-98797234D01*
X136389339Y-98819761D01*
X136411866Y-98847210D01*
X136428607Y-98878531D01*
X136438915Y-98912509D01*
X136443000Y-98953990D01*
X136443000Y-99630210D01*
X136438915Y-99671691D01*
X136428607Y-99705669D01*
X136411866Y-99736990D01*
X136389339Y-99764439D01*
X136361890Y-99786966D01*
X136330569Y-99803707D01*
X136296591Y-99814015D01*
X136255110Y-99818100D01*
X135653890Y-99818100D01*
X135612409Y-99814015D01*
X135578431Y-99803707D01*
X135547110Y-99786966D01*
X135519661Y-99764439D01*
X135497134Y-99736990D01*
X135480393Y-99705669D01*
X135470085Y-99671691D01*
X135466000Y-99630210D01*
X135466000Y-98953990D01*
X135470085Y-98912509D01*
X135480393Y-98878531D01*
X135497134Y-98847210D01*
X135519661Y-98819761D01*
X135547110Y-98797234D01*
X135578431Y-98780493D01*
X135612409Y-98770185D01*
X135653890Y-98766100D01*
X136255110Y-98766100D01*
X136296591Y-98770185D01*
X136296591Y-98770185D01*
G37*
G36*
X137871591Y-98770185D02*
G01*
X137905569Y-98780493D01*
X137936890Y-98797234D01*
X137964339Y-98819761D01*
X137986866Y-98847210D01*
X138003607Y-98878531D01*
X138013915Y-98912509D01*
X138018000Y-98953990D01*
X138018000Y-99630210D01*
X138013915Y-99671691D01*
X138003607Y-99705669D01*
X137986866Y-99736990D01*
X137964339Y-99764439D01*
X137936890Y-99786966D01*
X137905569Y-99803707D01*
X137871591Y-99814015D01*
X137830110Y-99818100D01*
X137228890Y-99818100D01*
X137187409Y-99814015D01*
X137153431Y-99803707D01*
X137122110Y-99786966D01*
X137094661Y-99764439D01*
X137072134Y-99736990D01*
X137055393Y-99705669D01*
X137045085Y-99671691D01*
X137041000Y-99630210D01*
X137041000Y-98953990D01*
X137045085Y-98912509D01*
X137055393Y-98878531D01*
X137072134Y-98847210D01*
X137094661Y-98819761D01*
X137122110Y-98797234D01*
X137153431Y-98780493D01*
X137187409Y-98770185D01*
X137228890Y-98766100D01*
X137830110Y-98766100D01*
X137871591Y-98770185D01*
X137871591Y-98770185D01*
G37*
G36*
X131039591Y-97114385D02*
G01*
X131073569Y-97124693D01*
X131104890Y-97141434D01*
X131132339Y-97163961D01*
X131154866Y-97191410D01*
X131171607Y-97222731D01*
X131181915Y-97256709D01*
X131186000Y-97298190D01*
X131186000Y-97974410D01*
X131181915Y-98015891D01*
X131171607Y-98049869D01*
X131154866Y-98081190D01*
X131132339Y-98108639D01*
X131104890Y-98131166D01*
X131073569Y-98147907D01*
X131039591Y-98158215D01*
X130998110Y-98162300D01*
X130396890Y-98162300D01*
X130355409Y-98158215D01*
X130321431Y-98147907D01*
X130290110Y-98131166D01*
X130262661Y-98108639D01*
X130240134Y-98081190D01*
X130223393Y-98049869D01*
X130213085Y-98015891D01*
X130209000Y-97974410D01*
X130209000Y-97298190D01*
X130213085Y-97256709D01*
X130223393Y-97222731D01*
X130240134Y-97191410D01*
X130262661Y-97163961D01*
X130290110Y-97141434D01*
X130321431Y-97124693D01*
X130355409Y-97114385D01*
X130396890Y-97110300D01*
X130998110Y-97110300D01*
X131039591Y-97114385D01*
X131039591Y-97114385D01*
G37*
G36*
X129464591Y-97114385D02*
G01*
X129498569Y-97124693D01*
X129529890Y-97141434D01*
X129557339Y-97163961D01*
X129579866Y-97191410D01*
X129596607Y-97222731D01*
X129606915Y-97256709D01*
X129611000Y-97298190D01*
X129611000Y-97974410D01*
X129606915Y-98015891D01*
X129596607Y-98049869D01*
X129579866Y-98081190D01*
X129557339Y-98108639D01*
X129529890Y-98131166D01*
X129498569Y-98147907D01*
X129464591Y-98158215D01*
X129423110Y-98162300D01*
X128821890Y-98162300D01*
X128780409Y-98158215D01*
X128746431Y-98147907D01*
X128715110Y-98131166D01*
X128687661Y-98108639D01*
X128665134Y-98081190D01*
X128648393Y-98049869D01*
X128638085Y-98015891D01*
X128634000Y-97974410D01*
X128634000Y-97298190D01*
X128638085Y-97256709D01*
X128648393Y-97222731D01*
X128665134Y-97191410D01*
X128687661Y-97163961D01*
X128715110Y-97141434D01*
X128746431Y-97124693D01*
X128780409Y-97114385D01*
X128821890Y-97110300D01*
X129423110Y-97110300D01*
X129464591Y-97114385D01*
X129464591Y-97114385D01*
G37*
G36*
X137871591Y-97104385D02*
G01*
X137905569Y-97114693D01*
X137936890Y-97131434D01*
X137964339Y-97153961D01*
X137986866Y-97181410D01*
X138003607Y-97212731D01*
X138013915Y-97246709D01*
X138018000Y-97288190D01*
X138018000Y-97964410D01*
X138013915Y-98005891D01*
X138003607Y-98039869D01*
X137986866Y-98071190D01*
X137964339Y-98098639D01*
X137936890Y-98121166D01*
X137905569Y-98137907D01*
X137871591Y-98148215D01*
X137830110Y-98152300D01*
X137228890Y-98152300D01*
X137187409Y-98148215D01*
X137153431Y-98137907D01*
X137122110Y-98121166D01*
X137094661Y-98098639D01*
X137072134Y-98071190D01*
X137055393Y-98039869D01*
X137045085Y-98005891D01*
X137041000Y-97964410D01*
X137041000Y-97288190D01*
X137045085Y-97246709D01*
X137055393Y-97212731D01*
X137072134Y-97181410D01*
X137094661Y-97153961D01*
X137122110Y-97131434D01*
X137153431Y-97114693D01*
X137187409Y-97104385D01*
X137228890Y-97100300D01*
X137830110Y-97100300D01*
X137871591Y-97104385D01*
X137871591Y-97104385D01*
G37*
G36*
X136296591Y-97104385D02*
G01*
X136330569Y-97114693D01*
X136361890Y-97131434D01*
X136389339Y-97153961D01*
X136411866Y-97181410D01*
X136428607Y-97212731D01*
X136438915Y-97246709D01*
X136443000Y-97288190D01*
X136443000Y-97964410D01*
X136438915Y-98005891D01*
X136428607Y-98039869D01*
X136411866Y-98071190D01*
X136389339Y-98098639D01*
X136361890Y-98121166D01*
X136330569Y-98137907D01*
X136296591Y-98148215D01*
X136255110Y-98152300D01*
X135653890Y-98152300D01*
X135612409Y-98148215D01*
X135578431Y-98137907D01*
X135547110Y-98121166D01*
X135519661Y-98098639D01*
X135497134Y-98071190D01*
X135480393Y-98039869D01*
X135470085Y-98005891D01*
X135466000Y-97964410D01*
X135466000Y-97288190D01*
X135470085Y-97246709D01*
X135480393Y-97212731D01*
X135497134Y-97181410D01*
X135519661Y-97153961D01*
X135547110Y-97131434D01*
X135578431Y-97114693D01*
X135612409Y-97104385D01*
X135653890Y-97100300D01*
X136255110Y-97100300D01*
X136296591Y-97104385D01*
X136296591Y-97104385D01*
G37*
G36*
X122030442Y-95625518D02*
G01*
X122096627Y-95632037D01*
X122266466Y-95683557D01*
X122422991Y-95767222D01*
X122458729Y-95796552D01*
X122560186Y-95879814D01*
X122643448Y-95981271D01*
X122672778Y-96017009D01*
X122756443Y-96173534D01*
X122807963Y-96343373D01*
X122825359Y-96520000D01*
X122807963Y-96696627D01*
X122756443Y-96866466D01*
X122672778Y-97022991D01*
X122643448Y-97058729D01*
X122560186Y-97160186D01*
X122458729Y-97243448D01*
X122422991Y-97272778D01*
X122266466Y-97356443D01*
X122096627Y-97407963D01*
X122030442Y-97414482D01*
X121964260Y-97421000D01*
X121875740Y-97421000D01*
X121809558Y-97414482D01*
X121743373Y-97407963D01*
X121573534Y-97356443D01*
X121417009Y-97272778D01*
X121381271Y-97243448D01*
X121279814Y-97160186D01*
X121196552Y-97058729D01*
X121167222Y-97022991D01*
X121083557Y-96866466D01*
X121032037Y-96696627D01*
X121014641Y-96520000D01*
X121032037Y-96343373D01*
X121083557Y-96173534D01*
X121167222Y-96017009D01*
X121196552Y-95981271D01*
X121279814Y-95879814D01*
X121381271Y-95796552D01*
X121417009Y-95767222D01*
X121573534Y-95683557D01*
X121743373Y-95632037D01*
X121809558Y-95625518D01*
X121875740Y-95619000D01*
X121964260Y-95619000D01*
X122030442Y-95625518D01*
X122030442Y-95625518D01*
G37*
G36*
X144890442Y-95625518D02*
G01*
X144956627Y-95632037D01*
X145126466Y-95683557D01*
X145282991Y-95767222D01*
X145318729Y-95796552D01*
X145420186Y-95879814D01*
X145503448Y-95981271D01*
X145532778Y-96017009D01*
X145616443Y-96173534D01*
X145667963Y-96343373D01*
X145685359Y-96520000D01*
X145667963Y-96696627D01*
X145616443Y-96866466D01*
X145532778Y-97022991D01*
X145503448Y-97058729D01*
X145420186Y-97160186D01*
X145318729Y-97243448D01*
X145282991Y-97272778D01*
X145126466Y-97356443D01*
X144956627Y-97407963D01*
X144890442Y-97414482D01*
X144824260Y-97421000D01*
X144735740Y-97421000D01*
X144669558Y-97414482D01*
X144603373Y-97407963D01*
X144433534Y-97356443D01*
X144277009Y-97272778D01*
X144241271Y-97243448D01*
X144139814Y-97160186D01*
X144056552Y-97058729D01*
X144027222Y-97022991D01*
X143943557Y-96866466D01*
X143892037Y-96696627D01*
X143874641Y-96520000D01*
X143892037Y-96343373D01*
X143943557Y-96173534D01*
X144027222Y-96017009D01*
X144056552Y-95981271D01*
X144139814Y-95879814D01*
X144241271Y-95796552D01*
X144277009Y-95767222D01*
X144433534Y-95683557D01*
X144603373Y-95632037D01*
X144669558Y-95625518D01*
X144735740Y-95619000D01*
X144824260Y-95619000D01*
X144890442Y-95625518D01*
X144890442Y-95625518D01*
G37*
G36*
X129464591Y-95448585D02*
G01*
X129498569Y-95458893D01*
X129529890Y-95475634D01*
X129557339Y-95498161D01*
X129579866Y-95525610D01*
X129596607Y-95556931D01*
X129606915Y-95590909D01*
X129611000Y-95632390D01*
X129611000Y-96308610D01*
X129606915Y-96350091D01*
X129596607Y-96384069D01*
X129579866Y-96415390D01*
X129557339Y-96442839D01*
X129529890Y-96465366D01*
X129498569Y-96482107D01*
X129464591Y-96492415D01*
X129423110Y-96496500D01*
X128821890Y-96496500D01*
X128780409Y-96492415D01*
X128746431Y-96482107D01*
X128715110Y-96465366D01*
X128687661Y-96442839D01*
X128665134Y-96415390D01*
X128648393Y-96384069D01*
X128638085Y-96350091D01*
X128634000Y-96308610D01*
X128634000Y-95632390D01*
X128638085Y-95590909D01*
X128648393Y-95556931D01*
X128665134Y-95525610D01*
X128687661Y-95498161D01*
X128715110Y-95475634D01*
X128746431Y-95458893D01*
X128780409Y-95448585D01*
X128821890Y-95444500D01*
X129423110Y-95444500D01*
X129464591Y-95448585D01*
X129464591Y-95448585D01*
G37*
G36*
X131039591Y-95448585D02*
G01*
X131073569Y-95458893D01*
X131104890Y-95475634D01*
X131132339Y-95498161D01*
X131154866Y-95525610D01*
X131171607Y-95556931D01*
X131181915Y-95590909D01*
X131186000Y-95632390D01*
X131186000Y-96308610D01*
X131181915Y-96350091D01*
X131171607Y-96384069D01*
X131154866Y-96415390D01*
X131132339Y-96442839D01*
X131104890Y-96465366D01*
X131073569Y-96482107D01*
X131039591Y-96492415D01*
X130998110Y-96496500D01*
X130396890Y-96496500D01*
X130355409Y-96492415D01*
X130321431Y-96482107D01*
X130290110Y-96465366D01*
X130262661Y-96442839D01*
X130240134Y-96415390D01*
X130223393Y-96384069D01*
X130213085Y-96350091D01*
X130209000Y-96308610D01*
X130209000Y-95632390D01*
X130213085Y-95590909D01*
X130223393Y-95556931D01*
X130240134Y-95525610D01*
X130262661Y-95498161D01*
X130290110Y-95475634D01*
X130321431Y-95458893D01*
X130355409Y-95448585D01*
X130396890Y-95444500D01*
X130998110Y-95444500D01*
X131039591Y-95448585D01*
X131039591Y-95448585D01*
G37*
G36*
X136296591Y-95438585D02*
G01*
X136330569Y-95448893D01*
X136361890Y-95465634D01*
X136389339Y-95488161D01*
X136411866Y-95515610D01*
X136428607Y-95546931D01*
X136438915Y-95580909D01*
X136443000Y-95622390D01*
X136443000Y-96298610D01*
X136438915Y-96340091D01*
X136428607Y-96374069D01*
X136411866Y-96405390D01*
X136389339Y-96432839D01*
X136361890Y-96455366D01*
X136330569Y-96472107D01*
X136296591Y-96482415D01*
X136255110Y-96486500D01*
X135653890Y-96486500D01*
X135612409Y-96482415D01*
X135578431Y-96472107D01*
X135547110Y-96455366D01*
X135519661Y-96432839D01*
X135497134Y-96405390D01*
X135480393Y-96374069D01*
X135470085Y-96340091D01*
X135466000Y-96298610D01*
X135466000Y-95622390D01*
X135470085Y-95580909D01*
X135480393Y-95546931D01*
X135497134Y-95515610D01*
X135519661Y-95488161D01*
X135547110Y-95465634D01*
X135578431Y-95448893D01*
X135612409Y-95438585D01*
X135653890Y-95434500D01*
X136255110Y-95434500D01*
X136296591Y-95438585D01*
X136296591Y-95438585D01*
G37*
G36*
X137871591Y-95438585D02*
G01*
X137905569Y-95448893D01*
X137936890Y-95465634D01*
X137964339Y-95488161D01*
X137986866Y-95515610D01*
X138003607Y-95546931D01*
X138013915Y-95580909D01*
X138018000Y-95622390D01*
X138018000Y-96298610D01*
X138013915Y-96340091D01*
X138003607Y-96374069D01*
X137986866Y-96405390D01*
X137964339Y-96432839D01*
X137936890Y-96455366D01*
X137905569Y-96472107D01*
X137871591Y-96482415D01*
X137830110Y-96486500D01*
X137228890Y-96486500D01*
X137187409Y-96482415D01*
X137153431Y-96472107D01*
X137122110Y-96455366D01*
X137094661Y-96432839D01*
X137072134Y-96405390D01*
X137055393Y-96374069D01*
X137045085Y-96340091D01*
X137041000Y-96298610D01*
X137041000Y-95622390D01*
X137045085Y-95580909D01*
X137055393Y-95546931D01*
X137072134Y-95515610D01*
X137094661Y-95488161D01*
X137122110Y-95465634D01*
X137153431Y-95448893D01*
X137187409Y-95438585D01*
X137228890Y-95434500D01*
X137830110Y-95434500D01*
X137871591Y-95438585D01*
X137871591Y-95438585D01*
G37*
G36*
X144890443Y-93085519D02*
G01*
X144956627Y-93092037D01*
X145126466Y-93143557D01*
X145126468Y-93143558D01*
X145140232Y-93150915D01*
X145282991Y-93227222D01*
X145318729Y-93256552D01*
X145420186Y-93339814D01*
X145503448Y-93441271D01*
X145532778Y-93477009D01*
X145616443Y-93633534D01*
X145667963Y-93803373D01*
X145685359Y-93980000D01*
X145667963Y-94156627D01*
X145616443Y-94326466D01*
X145532778Y-94482991D01*
X145503448Y-94518729D01*
X145420186Y-94620186D01*
X145318729Y-94703448D01*
X145282991Y-94732778D01*
X145282989Y-94732779D01*
X145126721Y-94816307D01*
X145126466Y-94816443D01*
X144956627Y-94867963D01*
X144890443Y-94874481D01*
X144824260Y-94881000D01*
X144735740Y-94881000D01*
X144669557Y-94874481D01*
X144603373Y-94867963D01*
X144433534Y-94816443D01*
X144433280Y-94816307D01*
X144277011Y-94732779D01*
X144277009Y-94732778D01*
X144241271Y-94703448D01*
X144139814Y-94620186D01*
X144056552Y-94518729D01*
X144027222Y-94482991D01*
X143943557Y-94326466D01*
X143892037Y-94156627D01*
X143874641Y-93980000D01*
X143892037Y-93803373D01*
X143943557Y-93633534D01*
X144027222Y-93477009D01*
X144056552Y-93441271D01*
X144139814Y-93339814D01*
X144241271Y-93256552D01*
X144277009Y-93227222D01*
X144419768Y-93150915D01*
X144433532Y-93143558D01*
X144433534Y-93143557D01*
X144603373Y-93092037D01*
X144669557Y-93085519D01*
X144735740Y-93079000D01*
X144824260Y-93079000D01*
X144890443Y-93085519D01*
X144890443Y-93085519D01*
G37*
G36*
X122030443Y-93085519D02*
G01*
X122096627Y-93092037D01*
X122266466Y-93143557D01*
X122266468Y-93143558D01*
X122280232Y-93150915D01*
X122422991Y-93227222D01*
X122458729Y-93256552D01*
X122560186Y-93339814D01*
X122643448Y-93441271D01*
X122672778Y-93477009D01*
X122756443Y-93633534D01*
X122807963Y-93803373D01*
X122825359Y-93980000D01*
X122807963Y-94156627D01*
X122756443Y-94326466D01*
X122672778Y-94482991D01*
X122643448Y-94518729D01*
X122560186Y-94620186D01*
X122458729Y-94703448D01*
X122422991Y-94732778D01*
X122422989Y-94732779D01*
X122266721Y-94816307D01*
X122266466Y-94816443D01*
X122096627Y-94867963D01*
X122030443Y-94874481D01*
X121964260Y-94881000D01*
X121875740Y-94881000D01*
X121809557Y-94874481D01*
X121743373Y-94867963D01*
X121573534Y-94816443D01*
X121573280Y-94816307D01*
X121417011Y-94732779D01*
X121417009Y-94732778D01*
X121381271Y-94703448D01*
X121279814Y-94620186D01*
X121196552Y-94518729D01*
X121167222Y-94482991D01*
X121083557Y-94326466D01*
X121032037Y-94156627D01*
X121014641Y-93980000D01*
X121032037Y-93803373D01*
X121083557Y-93633534D01*
X121167222Y-93477009D01*
X121196552Y-93441271D01*
X121279814Y-93339814D01*
X121381271Y-93256552D01*
X121417009Y-93227222D01*
X121559768Y-93150915D01*
X121573532Y-93143558D01*
X121573534Y-93143557D01*
X121743373Y-93092037D01*
X121809557Y-93085519D01*
X121875740Y-93079000D01*
X121964260Y-93079000D01*
X122030443Y-93085519D01*
X122030443Y-93085519D01*
G37*
G36*
X129464591Y-93782785D02*
G01*
X129498569Y-93793093D01*
X129529890Y-93809834D01*
X129557339Y-93832361D01*
X129579866Y-93859810D01*
X129596607Y-93891131D01*
X129606915Y-93925109D01*
X129611000Y-93966590D01*
X129611000Y-94642810D01*
X129606915Y-94684291D01*
X129596607Y-94718269D01*
X129579866Y-94749590D01*
X129557339Y-94777039D01*
X129529890Y-94799566D01*
X129498569Y-94816307D01*
X129464591Y-94826615D01*
X129423110Y-94830700D01*
X128821890Y-94830700D01*
X128780409Y-94826615D01*
X128746431Y-94816307D01*
X128715110Y-94799566D01*
X128687661Y-94777039D01*
X128665134Y-94749590D01*
X128648393Y-94718269D01*
X128638085Y-94684291D01*
X128634000Y-94642810D01*
X128634000Y-93966590D01*
X128638085Y-93925109D01*
X128648393Y-93891131D01*
X128665134Y-93859810D01*
X128687661Y-93832361D01*
X128715110Y-93809834D01*
X128746431Y-93793093D01*
X128780409Y-93782785D01*
X128821890Y-93778700D01*
X129423110Y-93778700D01*
X129464591Y-93782785D01*
X129464591Y-93782785D01*
G37*
G36*
X131039591Y-93782785D02*
G01*
X131073569Y-93793093D01*
X131104890Y-93809834D01*
X131132339Y-93832361D01*
X131154866Y-93859810D01*
X131171607Y-93891131D01*
X131181915Y-93925109D01*
X131186000Y-93966590D01*
X131186000Y-94642810D01*
X131181915Y-94684291D01*
X131171607Y-94718269D01*
X131154866Y-94749590D01*
X131132339Y-94777039D01*
X131104890Y-94799566D01*
X131073569Y-94816307D01*
X131039591Y-94826615D01*
X130998110Y-94830700D01*
X130396890Y-94830700D01*
X130355409Y-94826615D01*
X130321431Y-94816307D01*
X130290110Y-94799566D01*
X130262661Y-94777039D01*
X130240134Y-94749590D01*
X130223393Y-94718269D01*
X130213085Y-94684291D01*
X130209000Y-94642810D01*
X130209000Y-93966590D01*
X130213085Y-93925109D01*
X130223393Y-93891131D01*
X130240134Y-93859810D01*
X130262661Y-93832361D01*
X130290110Y-93809834D01*
X130321431Y-93793093D01*
X130355409Y-93782785D01*
X130396890Y-93778700D01*
X130998110Y-93778700D01*
X131039591Y-93782785D01*
X131039591Y-93782785D01*
G37*
G36*
X136296591Y-93772785D02*
G01*
X136330569Y-93783093D01*
X136361890Y-93799834D01*
X136389339Y-93822361D01*
X136411866Y-93849810D01*
X136428607Y-93881131D01*
X136438915Y-93915109D01*
X136443000Y-93956590D01*
X136443000Y-94632810D01*
X136438915Y-94674291D01*
X136428607Y-94708269D01*
X136411866Y-94739590D01*
X136389339Y-94767039D01*
X136361890Y-94789566D01*
X136330569Y-94806307D01*
X136296591Y-94816615D01*
X136255110Y-94820700D01*
X135653890Y-94820700D01*
X135612409Y-94816615D01*
X135578431Y-94806307D01*
X135547110Y-94789566D01*
X135519661Y-94767039D01*
X135497134Y-94739590D01*
X135480393Y-94708269D01*
X135470085Y-94674291D01*
X135466000Y-94632810D01*
X135466000Y-93956590D01*
X135470085Y-93915109D01*
X135480393Y-93881131D01*
X135497134Y-93849810D01*
X135519661Y-93822361D01*
X135547110Y-93799834D01*
X135578431Y-93783093D01*
X135612409Y-93772785D01*
X135653890Y-93768700D01*
X136255110Y-93768700D01*
X136296591Y-93772785D01*
X136296591Y-93772785D01*
G37*
G36*
X137871591Y-93772785D02*
G01*
X137905569Y-93783093D01*
X137936890Y-93799834D01*
X137964339Y-93822361D01*
X137986866Y-93849810D01*
X138003607Y-93881131D01*
X138013915Y-93915109D01*
X138018000Y-93956590D01*
X138018000Y-94632810D01*
X138013915Y-94674291D01*
X138003607Y-94708269D01*
X137986866Y-94739590D01*
X137964339Y-94767039D01*
X137936890Y-94789566D01*
X137905569Y-94806307D01*
X137871591Y-94816615D01*
X137830110Y-94820700D01*
X137228890Y-94820700D01*
X137187409Y-94816615D01*
X137153431Y-94806307D01*
X137122110Y-94789566D01*
X137094661Y-94767039D01*
X137072134Y-94739590D01*
X137055393Y-94708269D01*
X137045085Y-94674291D01*
X137041000Y-94632810D01*
X137041000Y-93956590D01*
X137045085Y-93915109D01*
X137055393Y-93881131D01*
X137072134Y-93849810D01*
X137094661Y-93822361D01*
X137122110Y-93799834D01*
X137153431Y-93783093D01*
X137187409Y-93772785D01*
X137228890Y-93768700D01*
X137830110Y-93768700D01*
X137871591Y-93772785D01*
X137871591Y-93772785D01*
G37*
G36*
X129464591Y-92116985D02*
G01*
X129498569Y-92127293D01*
X129529890Y-92144034D01*
X129557339Y-92166561D01*
X129579866Y-92194010D01*
X129596607Y-92225331D01*
X129606915Y-92259309D01*
X129611000Y-92300790D01*
X129611000Y-92977010D01*
X129606915Y-93018491D01*
X129596607Y-93052469D01*
X129579866Y-93083790D01*
X129557339Y-93111239D01*
X129529890Y-93133766D01*
X129498569Y-93150507D01*
X129464591Y-93160815D01*
X129423110Y-93164900D01*
X128821890Y-93164900D01*
X128780409Y-93160815D01*
X128746431Y-93150507D01*
X128715110Y-93133766D01*
X128687661Y-93111239D01*
X128665134Y-93083790D01*
X128648393Y-93052469D01*
X128638085Y-93018491D01*
X128634000Y-92977010D01*
X128634000Y-92300790D01*
X128638085Y-92259309D01*
X128648393Y-92225331D01*
X128665134Y-92194010D01*
X128687661Y-92166561D01*
X128715110Y-92144034D01*
X128746431Y-92127293D01*
X128780409Y-92116985D01*
X128821890Y-92112900D01*
X129423110Y-92112900D01*
X129464591Y-92116985D01*
X129464591Y-92116985D01*
G37*
G36*
X131039591Y-92116985D02*
G01*
X131073569Y-92127293D01*
X131104890Y-92144034D01*
X131132339Y-92166561D01*
X131154866Y-92194010D01*
X131171607Y-92225331D01*
X131181915Y-92259309D01*
X131186000Y-92300790D01*
X131186000Y-92977010D01*
X131181915Y-93018491D01*
X131171607Y-93052469D01*
X131154866Y-93083790D01*
X131132339Y-93111239D01*
X131104890Y-93133766D01*
X131073569Y-93150507D01*
X131039591Y-93160815D01*
X130998110Y-93164900D01*
X130396890Y-93164900D01*
X130355409Y-93160815D01*
X130321431Y-93150507D01*
X130290110Y-93133766D01*
X130262661Y-93111239D01*
X130240134Y-93083790D01*
X130223393Y-93052469D01*
X130213085Y-93018491D01*
X130209000Y-92977010D01*
X130209000Y-92300790D01*
X130213085Y-92259309D01*
X130223393Y-92225331D01*
X130240134Y-92194010D01*
X130262661Y-92166561D01*
X130290110Y-92144034D01*
X130321431Y-92127293D01*
X130355409Y-92116985D01*
X130396890Y-92112900D01*
X130998110Y-92112900D01*
X131039591Y-92116985D01*
X131039591Y-92116985D01*
G37*
G36*
X136296591Y-92107085D02*
G01*
X136330569Y-92117393D01*
X136361890Y-92134134D01*
X136389339Y-92156661D01*
X136411866Y-92184110D01*
X136428607Y-92215431D01*
X136438915Y-92249409D01*
X136443000Y-92290890D01*
X136443000Y-92967110D01*
X136438915Y-93008591D01*
X136428607Y-93042569D01*
X136411866Y-93073890D01*
X136389339Y-93101339D01*
X136361890Y-93123866D01*
X136330569Y-93140607D01*
X136296591Y-93150915D01*
X136255110Y-93155000D01*
X135653890Y-93155000D01*
X135612409Y-93150915D01*
X135578431Y-93140607D01*
X135547110Y-93123866D01*
X135519661Y-93101339D01*
X135497134Y-93073890D01*
X135480393Y-93042569D01*
X135470085Y-93008591D01*
X135466000Y-92967110D01*
X135466000Y-92290890D01*
X135470085Y-92249409D01*
X135480393Y-92215431D01*
X135497134Y-92184110D01*
X135519661Y-92156661D01*
X135547110Y-92134134D01*
X135578431Y-92117393D01*
X135612409Y-92107085D01*
X135653890Y-92103000D01*
X136255110Y-92103000D01*
X136296591Y-92107085D01*
X136296591Y-92107085D01*
G37*
G36*
X137871591Y-92107085D02*
G01*
X137905569Y-92117393D01*
X137936890Y-92134134D01*
X137964339Y-92156661D01*
X137986866Y-92184110D01*
X138003607Y-92215431D01*
X138013915Y-92249409D01*
X138018000Y-92290890D01*
X138018000Y-92967110D01*
X138013915Y-93008591D01*
X138003607Y-93042569D01*
X137986866Y-93073890D01*
X137964339Y-93101339D01*
X137936890Y-93123866D01*
X137905569Y-93140607D01*
X137871591Y-93150915D01*
X137830110Y-93155000D01*
X137228890Y-93155000D01*
X137187409Y-93150915D01*
X137153431Y-93140607D01*
X137122110Y-93123866D01*
X137094661Y-93101339D01*
X137072134Y-93073890D01*
X137055393Y-93042569D01*
X137045085Y-93008591D01*
X137041000Y-92967110D01*
X137041000Y-92290890D01*
X137045085Y-92249409D01*
X137055393Y-92215431D01*
X137072134Y-92184110D01*
X137094661Y-92156661D01*
X137122110Y-92134134D01*
X137153431Y-92117393D01*
X137187409Y-92107085D01*
X137228890Y-92103000D01*
X137830110Y-92103000D01*
X137871591Y-92107085D01*
X137871591Y-92107085D01*
G37*
G36*
X122030443Y-90545519D02*
G01*
X122096627Y-90552037D01*
X122266466Y-90603557D01*
X122422991Y-90687222D01*
X122458729Y-90716552D01*
X122560186Y-90799814D01*
X122643448Y-90901271D01*
X122672778Y-90937009D01*
X122756443Y-91093534D01*
X122807963Y-91263373D01*
X122825359Y-91440000D01*
X122807963Y-91616627D01*
X122756443Y-91786466D01*
X122672778Y-91942991D01*
X122643448Y-91978729D01*
X122560186Y-92080186D01*
X122458729Y-92163448D01*
X122422991Y-92192778D01*
X122266466Y-92276443D01*
X122096627Y-92327963D01*
X122030443Y-92334481D01*
X121964260Y-92341000D01*
X121875740Y-92341000D01*
X121809557Y-92334481D01*
X121743373Y-92327963D01*
X121573534Y-92276443D01*
X121417009Y-92192778D01*
X121381271Y-92163448D01*
X121279814Y-92080186D01*
X121196552Y-91978729D01*
X121167222Y-91942991D01*
X121083557Y-91786466D01*
X121032037Y-91616627D01*
X121014641Y-91440000D01*
X121032037Y-91263373D01*
X121083557Y-91093534D01*
X121167222Y-90937009D01*
X121196552Y-90901271D01*
X121279814Y-90799814D01*
X121381271Y-90716552D01*
X121417009Y-90687222D01*
X121573534Y-90603557D01*
X121743373Y-90552037D01*
X121809557Y-90545519D01*
X121875740Y-90539000D01*
X121964260Y-90539000D01*
X122030443Y-90545519D01*
X122030443Y-90545519D01*
G37*
G36*
X144890443Y-90545519D02*
G01*
X144956627Y-90552037D01*
X145126466Y-90603557D01*
X145282991Y-90687222D01*
X145318729Y-90716552D01*
X145420186Y-90799814D01*
X145503448Y-90901271D01*
X145532778Y-90937009D01*
X145616443Y-91093534D01*
X145667963Y-91263373D01*
X145685359Y-91440000D01*
X145667963Y-91616627D01*
X145616443Y-91786466D01*
X145532778Y-91942991D01*
X145503448Y-91978729D01*
X145420186Y-92080186D01*
X145318729Y-92163448D01*
X145282991Y-92192778D01*
X145126466Y-92276443D01*
X144956627Y-92327963D01*
X144890443Y-92334481D01*
X144824260Y-92341000D01*
X144735740Y-92341000D01*
X144669557Y-92334481D01*
X144603373Y-92327963D01*
X144433534Y-92276443D01*
X144277009Y-92192778D01*
X144241271Y-92163448D01*
X144139814Y-92080186D01*
X144056552Y-91978729D01*
X144027222Y-91942991D01*
X143943557Y-91786466D01*
X143892037Y-91616627D01*
X143874641Y-91440000D01*
X143892037Y-91263373D01*
X143943557Y-91093534D01*
X144027222Y-90937009D01*
X144056552Y-90901271D01*
X144139814Y-90799814D01*
X144241271Y-90716552D01*
X144277009Y-90687222D01*
X144433534Y-90603557D01*
X144603373Y-90552037D01*
X144669557Y-90545519D01*
X144735740Y-90539000D01*
X144824260Y-90539000D01*
X144890443Y-90545519D01*
X144890443Y-90545519D01*
G37*
G36*
X131039591Y-90451285D02*
G01*
X131073569Y-90461593D01*
X131104890Y-90478334D01*
X131132339Y-90500861D01*
X131154866Y-90528310D01*
X131171607Y-90559631D01*
X131181915Y-90593609D01*
X131186000Y-90635090D01*
X131186000Y-91311310D01*
X131181915Y-91352791D01*
X131171607Y-91386769D01*
X131154866Y-91418090D01*
X131132339Y-91445539D01*
X131104890Y-91468066D01*
X131073569Y-91484807D01*
X131039591Y-91495115D01*
X130998110Y-91499200D01*
X130396890Y-91499200D01*
X130355409Y-91495115D01*
X130321431Y-91484807D01*
X130290110Y-91468066D01*
X130262661Y-91445539D01*
X130240134Y-91418090D01*
X130223393Y-91386769D01*
X130213085Y-91352791D01*
X130209000Y-91311310D01*
X130209000Y-90635090D01*
X130213085Y-90593609D01*
X130223393Y-90559631D01*
X130240134Y-90528310D01*
X130262661Y-90500861D01*
X130290110Y-90478334D01*
X130321431Y-90461593D01*
X130355409Y-90451285D01*
X130396890Y-90447200D01*
X130998110Y-90447200D01*
X131039591Y-90451285D01*
X131039591Y-90451285D01*
G37*
G36*
X129464591Y-90451285D02*
G01*
X129498569Y-90461593D01*
X129529890Y-90478334D01*
X129557339Y-90500861D01*
X129579866Y-90528310D01*
X129596607Y-90559631D01*
X129606915Y-90593609D01*
X129611000Y-90635090D01*
X129611000Y-91311310D01*
X129606915Y-91352791D01*
X129596607Y-91386769D01*
X129579866Y-91418090D01*
X129557339Y-91445539D01*
X129529890Y-91468066D01*
X129498569Y-91484807D01*
X129464591Y-91495115D01*
X129423110Y-91499200D01*
X128821890Y-91499200D01*
X128780409Y-91495115D01*
X128746431Y-91484807D01*
X128715110Y-91468066D01*
X128687661Y-91445539D01*
X128665134Y-91418090D01*
X128648393Y-91386769D01*
X128638085Y-91352791D01*
X128634000Y-91311310D01*
X128634000Y-90635090D01*
X128638085Y-90593609D01*
X128648393Y-90559631D01*
X128665134Y-90528310D01*
X128687661Y-90500861D01*
X128715110Y-90478334D01*
X128746431Y-90461593D01*
X128780409Y-90451285D01*
X128821890Y-90447200D01*
X129423110Y-90447200D01*
X129464591Y-90451285D01*
X129464591Y-90451285D01*
G37*
G36*
X137871591Y-90441285D02*
G01*
X137905569Y-90451593D01*
X137936890Y-90468334D01*
X137964339Y-90490861D01*
X137986866Y-90518310D01*
X138003607Y-90549631D01*
X138013915Y-90583609D01*
X138018000Y-90625090D01*
X138018000Y-91301310D01*
X138013915Y-91342791D01*
X138003607Y-91376769D01*
X137986866Y-91408090D01*
X137964339Y-91435539D01*
X137936890Y-91458066D01*
X137905569Y-91474807D01*
X137871591Y-91485115D01*
X137830110Y-91489200D01*
X137228890Y-91489200D01*
X137187409Y-91485115D01*
X137153431Y-91474807D01*
X137122110Y-91458066D01*
X137094661Y-91435539D01*
X137072134Y-91408090D01*
X137055393Y-91376769D01*
X137045085Y-91342791D01*
X137041000Y-91301310D01*
X137041000Y-90625090D01*
X137045085Y-90583609D01*
X137055393Y-90549631D01*
X137072134Y-90518310D01*
X137094661Y-90490861D01*
X137122110Y-90468334D01*
X137153431Y-90451593D01*
X137187409Y-90441285D01*
X137228890Y-90437200D01*
X137830110Y-90437200D01*
X137871591Y-90441285D01*
X137871591Y-90441285D01*
G37*
G36*
X136296591Y-90441285D02*
G01*
X136330569Y-90451593D01*
X136361890Y-90468334D01*
X136389339Y-90490861D01*
X136411866Y-90518310D01*
X136428607Y-90549631D01*
X136438915Y-90583609D01*
X136443000Y-90625090D01*
X136443000Y-91301310D01*
X136438915Y-91342791D01*
X136428607Y-91376769D01*
X136411866Y-91408090D01*
X136389339Y-91435539D01*
X136361890Y-91458066D01*
X136330569Y-91474807D01*
X136296591Y-91485115D01*
X136255110Y-91489200D01*
X135653890Y-91489200D01*
X135612409Y-91485115D01*
X135578431Y-91474807D01*
X135547110Y-91458066D01*
X135519661Y-91435539D01*
X135497134Y-91408090D01*
X135480393Y-91376769D01*
X135470085Y-91342791D01*
X135466000Y-91301310D01*
X135466000Y-90625090D01*
X135470085Y-90583609D01*
X135480393Y-90549631D01*
X135497134Y-90518310D01*
X135519661Y-90490861D01*
X135547110Y-90468334D01*
X135578431Y-90451593D01*
X135612409Y-90441285D01*
X135653890Y-90437200D01*
X136255110Y-90437200D01*
X136296591Y-90441285D01*
X136296591Y-90441285D01*
G37*
G36*
X131039591Y-88785485D02*
G01*
X131073569Y-88795793D01*
X131104890Y-88812534D01*
X131132339Y-88835061D01*
X131154866Y-88862510D01*
X131171607Y-88893831D01*
X131181915Y-88927809D01*
X131186000Y-88969290D01*
X131186000Y-89645510D01*
X131181915Y-89686991D01*
X131171607Y-89720969D01*
X131154866Y-89752290D01*
X131132339Y-89779739D01*
X131104890Y-89802266D01*
X131073569Y-89819007D01*
X131039591Y-89829315D01*
X130998110Y-89833400D01*
X130396890Y-89833400D01*
X130355409Y-89829315D01*
X130321431Y-89819007D01*
X130290110Y-89802266D01*
X130262661Y-89779739D01*
X130240134Y-89752290D01*
X130223393Y-89720969D01*
X130213085Y-89686991D01*
X130209000Y-89645510D01*
X130209000Y-88969290D01*
X130213085Y-88927809D01*
X130223393Y-88893831D01*
X130240134Y-88862510D01*
X130262661Y-88835061D01*
X130290110Y-88812534D01*
X130321431Y-88795793D01*
X130355409Y-88785485D01*
X130396890Y-88781400D01*
X130998110Y-88781400D01*
X131039591Y-88785485D01*
X131039591Y-88785485D01*
G37*
G36*
X129464591Y-88785485D02*
G01*
X129498569Y-88795793D01*
X129529890Y-88812534D01*
X129557339Y-88835061D01*
X129579866Y-88862510D01*
X129596607Y-88893831D01*
X129606915Y-88927809D01*
X129611000Y-88969290D01*
X129611000Y-89645510D01*
X129606915Y-89686991D01*
X129596607Y-89720969D01*
X129579866Y-89752290D01*
X129557339Y-89779739D01*
X129529890Y-89802266D01*
X129498569Y-89819007D01*
X129464591Y-89829315D01*
X129423110Y-89833400D01*
X128821890Y-89833400D01*
X128780409Y-89829315D01*
X128746431Y-89819007D01*
X128715110Y-89802266D01*
X128687661Y-89779739D01*
X128665134Y-89752290D01*
X128648393Y-89720969D01*
X128638085Y-89686991D01*
X128634000Y-89645510D01*
X128634000Y-88969290D01*
X128638085Y-88927809D01*
X128648393Y-88893831D01*
X128665134Y-88862510D01*
X128687661Y-88835061D01*
X128715110Y-88812534D01*
X128746431Y-88795793D01*
X128780409Y-88785485D01*
X128821890Y-88781400D01*
X129423110Y-88781400D01*
X129464591Y-88785485D01*
X129464591Y-88785485D01*
G37*
G36*
X136296591Y-88775485D02*
G01*
X136330569Y-88785793D01*
X136361890Y-88802534D01*
X136389339Y-88825061D01*
X136411866Y-88852510D01*
X136428607Y-88883831D01*
X136438915Y-88917809D01*
X136443000Y-88959290D01*
X136443000Y-89635510D01*
X136438915Y-89676991D01*
X136428607Y-89710969D01*
X136411866Y-89742290D01*
X136389339Y-89769739D01*
X136361890Y-89792266D01*
X136330569Y-89809007D01*
X136296591Y-89819315D01*
X136255110Y-89823400D01*
X135653890Y-89823400D01*
X135612409Y-89819315D01*
X135578431Y-89809007D01*
X135547110Y-89792266D01*
X135519661Y-89769739D01*
X135497134Y-89742290D01*
X135480393Y-89710969D01*
X135470085Y-89676991D01*
X135466000Y-89635510D01*
X135466000Y-88959290D01*
X135470085Y-88917809D01*
X135480393Y-88883831D01*
X135497134Y-88852510D01*
X135519661Y-88825061D01*
X135547110Y-88802534D01*
X135578431Y-88785793D01*
X135612409Y-88775485D01*
X135653890Y-88771400D01*
X136255110Y-88771400D01*
X136296591Y-88775485D01*
X136296591Y-88775485D01*
G37*
G36*
X137871591Y-88775485D02*
G01*
X137905569Y-88785793D01*
X137936890Y-88802534D01*
X137964339Y-88825061D01*
X137986866Y-88852510D01*
X138003607Y-88883831D01*
X138013915Y-88917809D01*
X138018000Y-88959290D01*
X138018000Y-89635510D01*
X138013915Y-89676991D01*
X138003607Y-89710969D01*
X137986866Y-89742290D01*
X137964339Y-89769739D01*
X137936890Y-89792266D01*
X137905569Y-89809007D01*
X137871591Y-89819315D01*
X137830110Y-89823400D01*
X137228890Y-89823400D01*
X137187409Y-89819315D01*
X137153431Y-89809007D01*
X137122110Y-89792266D01*
X137094661Y-89769739D01*
X137072134Y-89742290D01*
X137055393Y-89710969D01*
X137045085Y-89676991D01*
X137041000Y-89635510D01*
X137041000Y-88959290D01*
X137045085Y-88917809D01*
X137055393Y-88883831D01*
X137072134Y-88852510D01*
X137094661Y-88825061D01*
X137122110Y-88802534D01*
X137153431Y-88785793D01*
X137187409Y-88775485D01*
X137228890Y-88771400D01*
X137830110Y-88771400D01*
X137871591Y-88775485D01*
X137871591Y-88775485D01*
G37*
G36*
X122030443Y-88005519D02*
G01*
X122096627Y-88012037D01*
X122266466Y-88063557D01*
X122422991Y-88147222D01*
X122442103Y-88162907D01*
X122560186Y-88259814D01*
X122643448Y-88361271D01*
X122672778Y-88397009D01*
X122756443Y-88553534D01*
X122807963Y-88723373D01*
X122825359Y-88900000D01*
X122807963Y-89076627D01*
X122756443Y-89246466D01*
X122672778Y-89402991D01*
X122643448Y-89438729D01*
X122560186Y-89540186D01*
X122458729Y-89623448D01*
X122422991Y-89652778D01*
X122266466Y-89736443D01*
X122096627Y-89787963D01*
X122052937Y-89792266D01*
X121964260Y-89801000D01*
X121875740Y-89801000D01*
X121787063Y-89792266D01*
X121743373Y-89787963D01*
X121573534Y-89736443D01*
X121417009Y-89652778D01*
X121381271Y-89623448D01*
X121279814Y-89540186D01*
X121196552Y-89438729D01*
X121167222Y-89402991D01*
X121083557Y-89246466D01*
X121032037Y-89076627D01*
X121014641Y-88900000D01*
X121032037Y-88723373D01*
X121083557Y-88553534D01*
X121167222Y-88397009D01*
X121196552Y-88361271D01*
X121279814Y-88259814D01*
X121397897Y-88162907D01*
X121417009Y-88147222D01*
X121573534Y-88063557D01*
X121743373Y-88012037D01*
X121809557Y-88005519D01*
X121875740Y-87999000D01*
X121964260Y-87999000D01*
X122030443Y-88005519D01*
X122030443Y-88005519D01*
G37*
G36*
X144890443Y-88005519D02*
G01*
X144956627Y-88012037D01*
X145126466Y-88063557D01*
X145282991Y-88147222D01*
X145302103Y-88162907D01*
X145420186Y-88259814D01*
X145503448Y-88361271D01*
X145532778Y-88397009D01*
X145616443Y-88553534D01*
X145667963Y-88723373D01*
X145685359Y-88900000D01*
X145667963Y-89076627D01*
X145616443Y-89246466D01*
X145532778Y-89402991D01*
X145503448Y-89438729D01*
X145420186Y-89540186D01*
X145318729Y-89623448D01*
X145282991Y-89652778D01*
X145126466Y-89736443D01*
X144956627Y-89787963D01*
X144912937Y-89792266D01*
X144824260Y-89801000D01*
X144735740Y-89801000D01*
X144647063Y-89792266D01*
X144603373Y-89787963D01*
X144433534Y-89736443D01*
X144277009Y-89652778D01*
X144241271Y-89623448D01*
X144139814Y-89540186D01*
X144056552Y-89438729D01*
X144027222Y-89402991D01*
X143943557Y-89246466D01*
X143892037Y-89076627D01*
X143874641Y-88900000D01*
X143892037Y-88723373D01*
X143943557Y-88553534D01*
X144027222Y-88397009D01*
X144056552Y-88361271D01*
X144139814Y-88259814D01*
X144257897Y-88162907D01*
X144277009Y-88147222D01*
X144433534Y-88063557D01*
X144603373Y-88012037D01*
X144669557Y-88005519D01*
X144735740Y-87999000D01*
X144824260Y-87999000D01*
X144890443Y-88005519D01*
X144890443Y-88005519D01*
G37*
G36*
X131039591Y-87119685D02*
G01*
X131073569Y-87129993D01*
X131104890Y-87146734D01*
X131132339Y-87169261D01*
X131154866Y-87196710D01*
X131171607Y-87228031D01*
X131181915Y-87262009D01*
X131186000Y-87303490D01*
X131186000Y-87979710D01*
X131181915Y-88021191D01*
X131171607Y-88055169D01*
X131154866Y-88086490D01*
X131132339Y-88113939D01*
X131104890Y-88136466D01*
X131073569Y-88153207D01*
X131039591Y-88163515D01*
X130998110Y-88167600D01*
X130396890Y-88167600D01*
X130355409Y-88163515D01*
X130321431Y-88153207D01*
X130290110Y-88136466D01*
X130262661Y-88113939D01*
X130240134Y-88086490D01*
X130223393Y-88055169D01*
X130213085Y-88021191D01*
X130209000Y-87979710D01*
X130209000Y-87303490D01*
X130213085Y-87262009D01*
X130223393Y-87228031D01*
X130240134Y-87196710D01*
X130262661Y-87169261D01*
X130290110Y-87146734D01*
X130321431Y-87129993D01*
X130355409Y-87119685D01*
X130396890Y-87115600D01*
X130998110Y-87115600D01*
X131039591Y-87119685D01*
X131039591Y-87119685D01*
G37*
G36*
X129464591Y-87119685D02*
G01*
X129498569Y-87129993D01*
X129529890Y-87146734D01*
X129557339Y-87169261D01*
X129579866Y-87196710D01*
X129596607Y-87228031D01*
X129606915Y-87262009D01*
X129611000Y-87303490D01*
X129611000Y-87979710D01*
X129606915Y-88021191D01*
X129596607Y-88055169D01*
X129579866Y-88086490D01*
X129557339Y-88113939D01*
X129529890Y-88136466D01*
X129498569Y-88153207D01*
X129464591Y-88163515D01*
X129423110Y-88167600D01*
X128821890Y-88167600D01*
X128780409Y-88163515D01*
X128746431Y-88153207D01*
X128715110Y-88136466D01*
X128687661Y-88113939D01*
X128665134Y-88086490D01*
X128648393Y-88055169D01*
X128638085Y-88021191D01*
X128634000Y-87979710D01*
X128634000Y-87303490D01*
X128638085Y-87262009D01*
X128648393Y-87228031D01*
X128665134Y-87196710D01*
X128687661Y-87169261D01*
X128715110Y-87146734D01*
X128746431Y-87129993D01*
X128780409Y-87119685D01*
X128821890Y-87115600D01*
X129423110Y-87115600D01*
X129464591Y-87119685D01*
X129464591Y-87119685D01*
G37*
G36*
X137871591Y-87109685D02*
G01*
X137905569Y-87119993D01*
X137936890Y-87136734D01*
X137964339Y-87159261D01*
X137986866Y-87186710D01*
X138003607Y-87218031D01*
X138013915Y-87252009D01*
X138018000Y-87293490D01*
X138018000Y-87969710D01*
X138013915Y-88011191D01*
X138003607Y-88045169D01*
X137986866Y-88076490D01*
X137964339Y-88103939D01*
X137936890Y-88126466D01*
X137905569Y-88143207D01*
X137871591Y-88153515D01*
X137830110Y-88157600D01*
X137228890Y-88157600D01*
X137187409Y-88153515D01*
X137153431Y-88143207D01*
X137122110Y-88126466D01*
X137094661Y-88103939D01*
X137072134Y-88076490D01*
X137055393Y-88045169D01*
X137045085Y-88011191D01*
X137041000Y-87969710D01*
X137041000Y-87293490D01*
X137045085Y-87252009D01*
X137055393Y-87218031D01*
X137072134Y-87186710D01*
X137094661Y-87159261D01*
X137122110Y-87136734D01*
X137153431Y-87119993D01*
X137187409Y-87109685D01*
X137228890Y-87105600D01*
X137830110Y-87105600D01*
X137871591Y-87109685D01*
X137871591Y-87109685D01*
G37*
G36*
X136296591Y-87109685D02*
G01*
X136330569Y-87119993D01*
X136361890Y-87136734D01*
X136389339Y-87159261D01*
X136411866Y-87186710D01*
X136428607Y-87218031D01*
X136438915Y-87252009D01*
X136443000Y-87293490D01*
X136443000Y-87969710D01*
X136438915Y-88011191D01*
X136428607Y-88045169D01*
X136411866Y-88076490D01*
X136389339Y-88103939D01*
X136361890Y-88126466D01*
X136330569Y-88143207D01*
X136296591Y-88153515D01*
X136255110Y-88157600D01*
X135653890Y-88157600D01*
X135612409Y-88153515D01*
X135578431Y-88143207D01*
X135547110Y-88126466D01*
X135519661Y-88103939D01*
X135497134Y-88076490D01*
X135480393Y-88045169D01*
X135470085Y-88011191D01*
X135466000Y-87969710D01*
X135466000Y-87293490D01*
X135470085Y-87252009D01*
X135480393Y-87218031D01*
X135497134Y-87186710D01*
X135519661Y-87159261D01*
X135547110Y-87136734D01*
X135578431Y-87119993D01*
X135612409Y-87109685D01*
X135653890Y-87105600D01*
X136255110Y-87105600D01*
X136296591Y-87109685D01*
X136296591Y-87109685D01*
G37*
G36*
X122030442Y-85465518D02*
G01*
X122096627Y-85472037D01*
X122266466Y-85523557D01*
X122422991Y-85607222D01*
X122447931Y-85627690D01*
X122560186Y-85719814D01*
X122643448Y-85821271D01*
X122672778Y-85857009D01*
X122756443Y-86013534D01*
X122807963Y-86183373D01*
X122825359Y-86360000D01*
X122807963Y-86536627D01*
X122756443Y-86706466D01*
X122672778Y-86862991D01*
X122643448Y-86898729D01*
X122560186Y-87000186D01*
X122458729Y-87083448D01*
X122422991Y-87112778D01*
X122378173Y-87136734D01*
X122283873Y-87187139D01*
X122266466Y-87196443D01*
X122096627Y-87247963D01*
X122030442Y-87254482D01*
X121964260Y-87261000D01*
X121875740Y-87261000D01*
X121809558Y-87254482D01*
X121743373Y-87247963D01*
X121573534Y-87196443D01*
X121556128Y-87187139D01*
X121461827Y-87136734D01*
X121417009Y-87112778D01*
X121381271Y-87083448D01*
X121279814Y-87000186D01*
X121196552Y-86898729D01*
X121167222Y-86862991D01*
X121083557Y-86706466D01*
X121032037Y-86536627D01*
X121014641Y-86360000D01*
X121032037Y-86183373D01*
X121083557Y-86013534D01*
X121167222Y-85857009D01*
X121196552Y-85821271D01*
X121279814Y-85719814D01*
X121392069Y-85627690D01*
X121417009Y-85607222D01*
X121573534Y-85523557D01*
X121743373Y-85472037D01*
X121809558Y-85465518D01*
X121875740Y-85459000D01*
X121964260Y-85459000D01*
X122030442Y-85465518D01*
X122030442Y-85465518D01*
G37*
G36*
X144890442Y-85465518D02*
G01*
X144956627Y-85472037D01*
X145126466Y-85523557D01*
X145282991Y-85607222D01*
X145307931Y-85627690D01*
X145420186Y-85719814D01*
X145503448Y-85821271D01*
X145532778Y-85857009D01*
X145616443Y-86013534D01*
X145667963Y-86183373D01*
X145685359Y-86360000D01*
X145667963Y-86536627D01*
X145616443Y-86706466D01*
X145532778Y-86862991D01*
X145503448Y-86898729D01*
X145420186Y-87000186D01*
X145318729Y-87083448D01*
X145282991Y-87112778D01*
X145238173Y-87136734D01*
X145143873Y-87187139D01*
X145126466Y-87196443D01*
X144956627Y-87247963D01*
X144890442Y-87254482D01*
X144824260Y-87261000D01*
X144735740Y-87261000D01*
X144669558Y-87254482D01*
X144603373Y-87247963D01*
X144433534Y-87196443D01*
X144416128Y-87187139D01*
X144321827Y-87136734D01*
X144277009Y-87112778D01*
X144241271Y-87083448D01*
X144139814Y-87000186D01*
X144056552Y-86898729D01*
X144027222Y-86862991D01*
X143943557Y-86706466D01*
X143892037Y-86536627D01*
X143874641Y-86360000D01*
X143892037Y-86183373D01*
X143943557Y-86013534D01*
X144027222Y-85857009D01*
X144056552Y-85821271D01*
X144139814Y-85719814D01*
X144252069Y-85627690D01*
X144277009Y-85607222D01*
X144433534Y-85523557D01*
X144603373Y-85472037D01*
X144669558Y-85465518D01*
X144735740Y-85459000D01*
X144824260Y-85459000D01*
X144890442Y-85465518D01*
X144890442Y-85465518D01*
G37*
G36*
X129464591Y-85453885D02*
G01*
X129498569Y-85464193D01*
X129529890Y-85480934D01*
X129557339Y-85503461D01*
X129579866Y-85530910D01*
X129596607Y-85562231D01*
X129606915Y-85596209D01*
X129611000Y-85637690D01*
X129611000Y-86313910D01*
X129606915Y-86355391D01*
X129596607Y-86389369D01*
X129579866Y-86420690D01*
X129557339Y-86448139D01*
X129529890Y-86470666D01*
X129498569Y-86487407D01*
X129464591Y-86497715D01*
X129423110Y-86501800D01*
X128821890Y-86501800D01*
X128780409Y-86497715D01*
X128746431Y-86487407D01*
X128715110Y-86470666D01*
X128687661Y-86448139D01*
X128665134Y-86420690D01*
X128648393Y-86389369D01*
X128638085Y-86355391D01*
X128634000Y-86313910D01*
X128634000Y-85637690D01*
X128638085Y-85596209D01*
X128648393Y-85562231D01*
X128665134Y-85530910D01*
X128687661Y-85503461D01*
X128715110Y-85480934D01*
X128746431Y-85464193D01*
X128780409Y-85453885D01*
X128821890Y-85449800D01*
X129423110Y-85449800D01*
X129464591Y-85453885D01*
X129464591Y-85453885D01*
G37*
G36*
X131039591Y-85453885D02*
G01*
X131073569Y-85464193D01*
X131104890Y-85480934D01*
X131132339Y-85503461D01*
X131154866Y-85530910D01*
X131171607Y-85562231D01*
X131181915Y-85596209D01*
X131186000Y-85637690D01*
X131186000Y-86313910D01*
X131181915Y-86355391D01*
X131171607Y-86389369D01*
X131154866Y-86420690D01*
X131132339Y-86448139D01*
X131104890Y-86470666D01*
X131073569Y-86487407D01*
X131039591Y-86497715D01*
X130998110Y-86501800D01*
X130396890Y-86501800D01*
X130355409Y-86497715D01*
X130321431Y-86487407D01*
X130290110Y-86470666D01*
X130262661Y-86448139D01*
X130240134Y-86420690D01*
X130223393Y-86389369D01*
X130213085Y-86355391D01*
X130209000Y-86313910D01*
X130209000Y-85637690D01*
X130213085Y-85596209D01*
X130223393Y-85562231D01*
X130240134Y-85530910D01*
X130262661Y-85503461D01*
X130290110Y-85480934D01*
X130321431Y-85464193D01*
X130355409Y-85453885D01*
X130396890Y-85449800D01*
X130998110Y-85449800D01*
X131039591Y-85453885D01*
X131039591Y-85453885D01*
G37*
G36*
X137871591Y-85443885D02*
G01*
X137905569Y-85454193D01*
X137936890Y-85470934D01*
X137964339Y-85493461D01*
X137986866Y-85520910D01*
X138003607Y-85552231D01*
X138013915Y-85586209D01*
X138018000Y-85627690D01*
X138018000Y-86303910D01*
X138013915Y-86345391D01*
X138003607Y-86379369D01*
X137986866Y-86410690D01*
X137964339Y-86438139D01*
X137936890Y-86460666D01*
X137905569Y-86477407D01*
X137871591Y-86487715D01*
X137830110Y-86491800D01*
X137228890Y-86491800D01*
X137187409Y-86487715D01*
X137153431Y-86477407D01*
X137122110Y-86460666D01*
X137094661Y-86438139D01*
X137072134Y-86410690D01*
X137055393Y-86379369D01*
X137045085Y-86345391D01*
X137041000Y-86303910D01*
X137041000Y-85627690D01*
X137045085Y-85586209D01*
X137055393Y-85552231D01*
X137072134Y-85520910D01*
X137094661Y-85493461D01*
X137122110Y-85470934D01*
X137153431Y-85454193D01*
X137187409Y-85443885D01*
X137228890Y-85439800D01*
X137830110Y-85439800D01*
X137871591Y-85443885D01*
X137871591Y-85443885D01*
G37*
G36*
X136296591Y-85443885D02*
G01*
X136330569Y-85454193D01*
X136361890Y-85470934D01*
X136389339Y-85493461D01*
X136411866Y-85520910D01*
X136428607Y-85552231D01*
X136438915Y-85586209D01*
X136443000Y-85627690D01*
X136443000Y-86303910D01*
X136438915Y-86345391D01*
X136428607Y-86379369D01*
X136411866Y-86410690D01*
X136389339Y-86438139D01*
X136361890Y-86460666D01*
X136330569Y-86477407D01*
X136296591Y-86487715D01*
X136255110Y-86491800D01*
X135653890Y-86491800D01*
X135612409Y-86487715D01*
X135578431Y-86477407D01*
X135547110Y-86460666D01*
X135519661Y-86438139D01*
X135497134Y-86410690D01*
X135480393Y-86379369D01*
X135470085Y-86345391D01*
X135466000Y-86303910D01*
X135466000Y-85627690D01*
X135470085Y-85586209D01*
X135480393Y-85552231D01*
X135497134Y-85520910D01*
X135519661Y-85493461D01*
X135547110Y-85470934D01*
X135578431Y-85454193D01*
X135612409Y-85443885D01*
X135653890Y-85439800D01*
X136255110Y-85439800D01*
X136296591Y-85443885D01*
X136296591Y-85443885D01*
G37*
G36*
X131039591Y-83788085D02*
G01*
X131073569Y-83798393D01*
X131104890Y-83815134D01*
X131132339Y-83837661D01*
X131154866Y-83865110D01*
X131171607Y-83896431D01*
X131181915Y-83930409D01*
X131186000Y-83971890D01*
X131186000Y-84648110D01*
X131181915Y-84689591D01*
X131171607Y-84723569D01*
X131154866Y-84754890D01*
X131132339Y-84782339D01*
X131104890Y-84804866D01*
X131073569Y-84821607D01*
X131039591Y-84831915D01*
X130998110Y-84836000D01*
X130396890Y-84836000D01*
X130355409Y-84831915D01*
X130321431Y-84821607D01*
X130290110Y-84804866D01*
X130262661Y-84782339D01*
X130240134Y-84754890D01*
X130223393Y-84723569D01*
X130213085Y-84689591D01*
X130209000Y-84648110D01*
X130209000Y-83971890D01*
X130213085Y-83930409D01*
X130223393Y-83896431D01*
X130240134Y-83865110D01*
X130262661Y-83837661D01*
X130290110Y-83815134D01*
X130321431Y-83798393D01*
X130355409Y-83788085D01*
X130396890Y-83784000D01*
X130998110Y-83784000D01*
X131039591Y-83788085D01*
X131039591Y-83788085D01*
G37*
G36*
X129464591Y-83788085D02*
G01*
X129498569Y-83798393D01*
X129529890Y-83815134D01*
X129557339Y-83837661D01*
X129579866Y-83865110D01*
X129596607Y-83896431D01*
X129606915Y-83930409D01*
X129611000Y-83971890D01*
X129611000Y-84648110D01*
X129606915Y-84689591D01*
X129596607Y-84723569D01*
X129579866Y-84754890D01*
X129557339Y-84782339D01*
X129529890Y-84804866D01*
X129498569Y-84821607D01*
X129464591Y-84831915D01*
X129423110Y-84836000D01*
X128821890Y-84836000D01*
X128780409Y-84831915D01*
X128746431Y-84821607D01*
X128715110Y-84804866D01*
X128687661Y-84782339D01*
X128665134Y-84754890D01*
X128648393Y-84723569D01*
X128638085Y-84689591D01*
X128634000Y-84648110D01*
X128634000Y-83971890D01*
X128638085Y-83930409D01*
X128648393Y-83896431D01*
X128665134Y-83865110D01*
X128687661Y-83837661D01*
X128715110Y-83815134D01*
X128746431Y-83798393D01*
X128780409Y-83788085D01*
X128821890Y-83784000D01*
X129423110Y-83784000D01*
X129464591Y-83788085D01*
X129464591Y-83788085D01*
G37*
G36*
X136296591Y-83778085D02*
G01*
X136330569Y-83788393D01*
X136361890Y-83805134D01*
X136389339Y-83827661D01*
X136411866Y-83855110D01*
X136428607Y-83886431D01*
X136438915Y-83920409D01*
X136443000Y-83961890D01*
X136443000Y-84638110D01*
X136438915Y-84679591D01*
X136428607Y-84713569D01*
X136411866Y-84744890D01*
X136389339Y-84772339D01*
X136361890Y-84794866D01*
X136330569Y-84811607D01*
X136296591Y-84821915D01*
X136255110Y-84826000D01*
X135653890Y-84826000D01*
X135612409Y-84821915D01*
X135578431Y-84811607D01*
X135547110Y-84794866D01*
X135519661Y-84772339D01*
X135497134Y-84744890D01*
X135480393Y-84713569D01*
X135470085Y-84679591D01*
X135466000Y-84638110D01*
X135466000Y-83961890D01*
X135470085Y-83920409D01*
X135480393Y-83886431D01*
X135497134Y-83855110D01*
X135519661Y-83827661D01*
X135547110Y-83805134D01*
X135578431Y-83788393D01*
X135612409Y-83778085D01*
X135653890Y-83774000D01*
X136255110Y-83774000D01*
X136296591Y-83778085D01*
X136296591Y-83778085D01*
G37*
G36*
X137871591Y-83778085D02*
G01*
X137905569Y-83788393D01*
X137936890Y-83805134D01*
X137964339Y-83827661D01*
X137986866Y-83855110D01*
X138003607Y-83886431D01*
X138013915Y-83920409D01*
X138018000Y-83961890D01*
X138018000Y-84638110D01*
X138013915Y-84679591D01*
X138003607Y-84713569D01*
X137986866Y-84744890D01*
X137964339Y-84772339D01*
X137936890Y-84794866D01*
X137905569Y-84811607D01*
X137871591Y-84821915D01*
X137830110Y-84826000D01*
X137228890Y-84826000D01*
X137187409Y-84821915D01*
X137153431Y-84811607D01*
X137122110Y-84794866D01*
X137094661Y-84772339D01*
X137072134Y-84744890D01*
X137055393Y-84713569D01*
X137045085Y-84679591D01*
X137041000Y-84638110D01*
X137041000Y-83961890D01*
X137045085Y-83920409D01*
X137055393Y-83886431D01*
X137072134Y-83855110D01*
X137094661Y-83827661D01*
X137122110Y-83805134D01*
X137153431Y-83788393D01*
X137187409Y-83778085D01*
X137228890Y-83774000D01*
X137830110Y-83774000D01*
X137871591Y-83778085D01*
X137871591Y-83778085D01*
G37*
G36*
X122030443Y-82925519D02*
G01*
X122096627Y-82932037D01*
X122266466Y-82983557D01*
X122422991Y-83067222D01*
X122458729Y-83096552D01*
X122560186Y-83179814D01*
X122643448Y-83281271D01*
X122672778Y-83317009D01*
X122756443Y-83473534D01*
X122807963Y-83643373D01*
X122825359Y-83820000D01*
X122807963Y-83996627D01*
X122756443Y-84166466D01*
X122672778Y-84322991D01*
X122643448Y-84358729D01*
X122560186Y-84460186D01*
X122458729Y-84543448D01*
X122422991Y-84572778D01*
X122266466Y-84656443D01*
X122096627Y-84707963D01*
X122039707Y-84713569D01*
X121964260Y-84721000D01*
X121875740Y-84721000D01*
X121800293Y-84713569D01*
X121743373Y-84707963D01*
X121573534Y-84656443D01*
X121417009Y-84572778D01*
X121381271Y-84543448D01*
X121279814Y-84460186D01*
X121196552Y-84358729D01*
X121167222Y-84322991D01*
X121083557Y-84166466D01*
X121032037Y-83996627D01*
X121014641Y-83820000D01*
X121032037Y-83643373D01*
X121083557Y-83473534D01*
X121167222Y-83317009D01*
X121196552Y-83281271D01*
X121279814Y-83179814D01*
X121381271Y-83096552D01*
X121417009Y-83067222D01*
X121573534Y-82983557D01*
X121743373Y-82932037D01*
X121809557Y-82925519D01*
X121875740Y-82919000D01*
X121964260Y-82919000D01*
X122030443Y-82925519D01*
X122030443Y-82925519D01*
G37*
G36*
X144890443Y-82925519D02*
G01*
X144956627Y-82932037D01*
X145126466Y-82983557D01*
X145282991Y-83067222D01*
X145318729Y-83096552D01*
X145420186Y-83179814D01*
X145503448Y-83281271D01*
X145532778Y-83317009D01*
X145616443Y-83473534D01*
X145667963Y-83643373D01*
X145685359Y-83820000D01*
X145667963Y-83996627D01*
X145616443Y-84166466D01*
X145532778Y-84322991D01*
X145503448Y-84358729D01*
X145420186Y-84460186D01*
X145318729Y-84543448D01*
X145282991Y-84572778D01*
X145126466Y-84656443D01*
X144956627Y-84707963D01*
X144899707Y-84713569D01*
X144824260Y-84721000D01*
X144735740Y-84721000D01*
X144660293Y-84713569D01*
X144603373Y-84707963D01*
X144433534Y-84656443D01*
X144277009Y-84572778D01*
X144241271Y-84543448D01*
X144139814Y-84460186D01*
X144056552Y-84358729D01*
X144027222Y-84322991D01*
X143943557Y-84166466D01*
X143892037Y-83996627D01*
X143874641Y-83820000D01*
X143892037Y-83643373D01*
X143943557Y-83473534D01*
X144027222Y-83317009D01*
X144056552Y-83281271D01*
X144139814Y-83179814D01*
X144241271Y-83096552D01*
X144277009Y-83067222D01*
X144433534Y-82983557D01*
X144603373Y-82932037D01*
X144669557Y-82925519D01*
X144735740Y-82919000D01*
X144824260Y-82919000D01*
X144890443Y-82925519D01*
X144890443Y-82925519D01*
G37*
G36*
X144890442Y-80385518D02*
G01*
X144956627Y-80392037D01*
X145126466Y-80443557D01*
X145282991Y-80527222D01*
X145318729Y-80556552D01*
X145420186Y-80639814D01*
X145503448Y-80741271D01*
X145532778Y-80777009D01*
X145616443Y-80933534D01*
X145667963Y-81103373D01*
X145685359Y-81280000D01*
X145667963Y-81456627D01*
X145616443Y-81626466D01*
X145532778Y-81782991D01*
X145503448Y-81818729D01*
X145420186Y-81920186D01*
X145318729Y-82003448D01*
X145282991Y-82032778D01*
X145126466Y-82116443D01*
X144956627Y-82167963D01*
X144890443Y-82174481D01*
X144824260Y-82181000D01*
X144735740Y-82181000D01*
X144669557Y-82174481D01*
X144603373Y-82167963D01*
X144433534Y-82116443D01*
X144277009Y-82032778D01*
X144241271Y-82003448D01*
X144139814Y-81920186D01*
X144056552Y-81818729D01*
X144027222Y-81782991D01*
X143943557Y-81626466D01*
X143892037Y-81456627D01*
X143874641Y-81280000D01*
X143892037Y-81103373D01*
X143943557Y-80933534D01*
X144027222Y-80777009D01*
X144056552Y-80741271D01*
X144139814Y-80639814D01*
X144241271Y-80556552D01*
X144277009Y-80527222D01*
X144433534Y-80443557D01*
X144603373Y-80392037D01*
X144669558Y-80385518D01*
X144735740Y-80379000D01*
X144824260Y-80379000D01*
X144890442Y-80385518D01*
X144890442Y-80385518D01*
G37*
G36*
X122030442Y-80385518D02*
G01*
X122096627Y-80392037D01*
X122266466Y-80443557D01*
X122422991Y-80527222D01*
X122458729Y-80556552D01*
X122560186Y-80639814D01*
X122643448Y-80741271D01*
X122672778Y-80777009D01*
X122756443Y-80933534D01*
X122807963Y-81103373D01*
X122825359Y-81280000D01*
X122807963Y-81456627D01*
X122756443Y-81626466D01*
X122672778Y-81782991D01*
X122643448Y-81818729D01*
X122560186Y-81920186D01*
X122458729Y-82003448D01*
X122422991Y-82032778D01*
X122266466Y-82116443D01*
X122096627Y-82167963D01*
X122030443Y-82174481D01*
X121964260Y-82181000D01*
X121875740Y-82181000D01*
X121809557Y-82174481D01*
X121743373Y-82167963D01*
X121573534Y-82116443D01*
X121417009Y-82032778D01*
X121381271Y-82003448D01*
X121279814Y-81920186D01*
X121196552Y-81818729D01*
X121167222Y-81782991D01*
X121083557Y-81626466D01*
X121032037Y-81456627D01*
X121014641Y-81280000D01*
X121032037Y-81103373D01*
X121083557Y-80933534D01*
X121167222Y-80777009D01*
X121196552Y-80741271D01*
X121279814Y-80639814D01*
X121381271Y-80556552D01*
X121417009Y-80527222D01*
X121573534Y-80443557D01*
X121743373Y-80392037D01*
X121809558Y-80385518D01*
X121875740Y-80379000D01*
X121964260Y-80379000D01*
X122030442Y-80385518D01*
X122030442Y-80385518D01*
G37*
G36*
X122030443Y-77845519D02*
G01*
X122096627Y-77852037D01*
X122266466Y-77903557D01*
X122422991Y-77987222D01*
X122458729Y-78016552D01*
X122560186Y-78099814D01*
X122643448Y-78201271D01*
X122672778Y-78237009D01*
X122756443Y-78393534D01*
X122807963Y-78563373D01*
X122825359Y-78740000D01*
X122807963Y-78916627D01*
X122756443Y-79086466D01*
X122672778Y-79242991D01*
X122643448Y-79278729D01*
X122560186Y-79380186D01*
X122458729Y-79463448D01*
X122422991Y-79492778D01*
X122266466Y-79576443D01*
X122096627Y-79627963D01*
X122030442Y-79634482D01*
X121964260Y-79641000D01*
X121875740Y-79641000D01*
X121809558Y-79634482D01*
X121743373Y-79627963D01*
X121573534Y-79576443D01*
X121417009Y-79492778D01*
X121381271Y-79463448D01*
X121279814Y-79380186D01*
X121196552Y-79278729D01*
X121167222Y-79242991D01*
X121083557Y-79086466D01*
X121032037Y-78916627D01*
X121014641Y-78740000D01*
X121032037Y-78563373D01*
X121083557Y-78393534D01*
X121167222Y-78237009D01*
X121196552Y-78201271D01*
X121279814Y-78099814D01*
X121381271Y-78016552D01*
X121417009Y-77987222D01*
X121573534Y-77903557D01*
X121743373Y-77852037D01*
X121809557Y-77845519D01*
X121875740Y-77839000D01*
X121964260Y-77839000D01*
X122030443Y-77845519D01*
X122030443Y-77845519D01*
G37*
G36*
X144890443Y-77845519D02*
G01*
X144956627Y-77852037D01*
X145126466Y-77903557D01*
X145282991Y-77987222D01*
X145318729Y-78016552D01*
X145420186Y-78099814D01*
X145503448Y-78201271D01*
X145532778Y-78237009D01*
X145616443Y-78393534D01*
X145667963Y-78563373D01*
X145685359Y-78740000D01*
X145667963Y-78916627D01*
X145616443Y-79086466D01*
X145532778Y-79242991D01*
X145503448Y-79278729D01*
X145420186Y-79380186D01*
X145318729Y-79463448D01*
X145282991Y-79492778D01*
X145126466Y-79576443D01*
X144956627Y-79627963D01*
X144890442Y-79634482D01*
X144824260Y-79641000D01*
X144735740Y-79641000D01*
X144669558Y-79634482D01*
X144603373Y-79627963D01*
X144433534Y-79576443D01*
X144277009Y-79492778D01*
X144241271Y-79463448D01*
X144139814Y-79380186D01*
X144056552Y-79278729D01*
X144027222Y-79242991D01*
X143943557Y-79086466D01*
X143892037Y-78916627D01*
X143874641Y-78740000D01*
X143892037Y-78563373D01*
X143943557Y-78393534D01*
X144027222Y-78237009D01*
X144056552Y-78201271D01*
X144139814Y-78099814D01*
X144241271Y-78016552D01*
X144277009Y-77987222D01*
X144433534Y-77903557D01*
X144603373Y-77852037D01*
X144669557Y-77845519D01*
X144735740Y-77839000D01*
X144824260Y-77839000D01*
X144890443Y-77845519D01*
X144890443Y-77845519D01*
G37*
G36*
X144890442Y-75305518D02*
G01*
X144956627Y-75312037D01*
X145126466Y-75363557D01*
X145282991Y-75447222D01*
X145318729Y-75476552D01*
X145420186Y-75559814D01*
X145503448Y-75661271D01*
X145532778Y-75697009D01*
X145616443Y-75853534D01*
X145667963Y-76023373D01*
X145685359Y-76200000D01*
X145667963Y-76376627D01*
X145616443Y-76546466D01*
X145532778Y-76702991D01*
X145503448Y-76738729D01*
X145420186Y-76840186D01*
X145318729Y-76923448D01*
X145282991Y-76952778D01*
X145126466Y-77036443D01*
X144956627Y-77087963D01*
X144890442Y-77094482D01*
X144824260Y-77101000D01*
X144735740Y-77101000D01*
X144669558Y-77094482D01*
X144603373Y-77087963D01*
X144433534Y-77036443D01*
X144277009Y-76952778D01*
X144241271Y-76923448D01*
X144139814Y-76840186D01*
X144056552Y-76738729D01*
X144027222Y-76702991D01*
X143943557Y-76546466D01*
X143892037Y-76376627D01*
X143874641Y-76200000D01*
X143892037Y-76023373D01*
X143943557Y-75853534D01*
X144027222Y-75697009D01*
X144056552Y-75661271D01*
X144139814Y-75559814D01*
X144241271Y-75476552D01*
X144277009Y-75447222D01*
X144433534Y-75363557D01*
X144603373Y-75312037D01*
X144669558Y-75305518D01*
X144735740Y-75299000D01*
X144824260Y-75299000D01*
X144890442Y-75305518D01*
X144890442Y-75305518D01*
G37*
G36*
X122030442Y-75305518D02*
G01*
X122096627Y-75312037D01*
X122266466Y-75363557D01*
X122422991Y-75447222D01*
X122458729Y-75476552D01*
X122560186Y-75559814D01*
X122643448Y-75661271D01*
X122672778Y-75697009D01*
X122756443Y-75853534D01*
X122807963Y-76023373D01*
X122825359Y-76200000D01*
X122807963Y-76376627D01*
X122756443Y-76546466D01*
X122672778Y-76702991D01*
X122643448Y-76738729D01*
X122560186Y-76840186D01*
X122458729Y-76923448D01*
X122422991Y-76952778D01*
X122266466Y-77036443D01*
X122096627Y-77087963D01*
X122030442Y-77094482D01*
X121964260Y-77101000D01*
X121875740Y-77101000D01*
X121809558Y-77094482D01*
X121743373Y-77087963D01*
X121573534Y-77036443D01*
X121417009Y-76952778D01*
X121381271Y-76923448D01*
X121279814Y-76840186D01*
X121196552Y-76738729D01*
X121167222Y-76702991D01*
X121083557Y-76546466D01*
X121032037Y-76376627D01*
X121014641Y-76200000D01*
X121032037Y-76023373D01*
X121083557Y-75853534D01*
X121167222Y-75697009D01*
X121196552Y-75661271D01*
X121279814Y-75559814D01*
X121381271Y-75476552D01*
X121417009Y-75447222D01*
X121573534Y-75363557D01*
X121743373Y-75312037D01*
X121809558Y-75305518D01*
X121875740Y-75299000D01*
X121964260Y-75299000D01*
X122030442Y-75305518D01*
X122030442Y-75305518D01*
G37*
G36*
X130529375Y-73660764D02*
G01*
X130682626Y-73707252D01*
X130682629Y-73707253D01*
X130823863Y-73782744D01*
X130947659Y-73884341D01*
X131049256Y-74008137D01*
X131124747Y-74149370D01*
X131124747Y-74149371D01*
X131124748Y-74149373D01*
X131171236Y-74302624D01*
X131183000Y-74422067D01*
X131183000Y-74777932D01*
X131171236Y-74897375D01*
X131124748Y-75050627D01*
X131124747Y-75050630D01*
X131049256Y-75191863D01*
X130947659Y-75315659D01*
X130823863Y-75417256D01*
X130682630Y-75492747D01*
X130682627Y-75492748D01*
X130529376Y-75539236D01*
X130370000Y-75554933D01*
X130210625Y-75539236D01*
X130057374Y-75492748D01*
X130057371Y-75492747D01*
X129916137Y-75417256D01*
X129792341Y-75315659D01*
X129690744Y-75191863D01*
X129615253Y-75050630D01*
X129615252Y-75050627D01*
X129568764Y-74897376D01*
X129557000Y-74777933D01*
X129557000Y-74422068D01*
X129568764Y-74302625D01*
X129615252Y-74149374D01*
X129615253Y-74149371D01*
X129690744Y-74008137D01*
X129792341Y-73884341D01*
X129916137Y-73782744D01*
X130057370Y-73707253D01*
X130057373Y-73707252D01*
X130210624Y-73660764D01*
X130370000Y-73645067D01*
X130529375Y-73660764D01*
X130529375Y-73660764D01*
G37*
G36*
X132529375Y-73660764D02*
G01*
X132682626Y-73707252D01*
X132682629Y-73707253D01*
X132823863Y-73782744D01*
X132947659Y-73884341D01*
X133049256Y-74008137D01*
X133124747Y-74149370D01*
X133124747Y-74149371D01*
X133124748Y-74149373D01*
X133171236Y-74302624D01*
X133183000Y-74422067D01*
X133183000Y-74777932D01*
X133171236Y-74897375D01*
X133124748Y-75050627D01*
X133124747Y-75050630D01*
X133049256Y-75191863D01*
X132947659Y-75315659D01*
X132823863Y-75417256D01*
X132682630Y-75492747D01*
X132682627Y-75492748D01*
X132529376Y-75539236D01*
X132370000Y-75554933D01*
X132210625Y-75539236D01*
X132057374Y-75492748D01*
X132057371Y-75492747D01*
X131916137Y-75417256D01*
X131792341Y-75315659D01*
X131690744Y-75191863D01*
X131615253Y-75050630D01*
X131615252Y-75050627D01*
X131568764Y-74897376D01*
X131557000Y-74777933D01*
X131557000Y-74422068D01*
X131568764Y-74302625D01*
X131615252Y-74149374D01*
X131615253Y-74149371D01*
X131690744Y-74008137D01*
X131792341Y-73884341D01*
X131916137Y-73782744D01*
X132057370Y-73707253D01*
X132057373Y-73707252D01*
X132210624Y-73660764D01*
X132370000Y-73645067D01*
X132529375Y-73660764D01*
X132529375Y-73660764D01*
G37*
G36*
X134529375Y-73660764D02*
G01*
X134682626Y-73707252D01*
X134682629Y-73707253D01*
X134823863Y-73782744D01*
X134947659Y-73884341D01*
X135049256Y-74008137D01*
X135124747Y-74149370D01*
X135124747Y-74149371D01*
X135124748Y-74149373D01*
X135171236Y-74302624D01*
X135183000Y-74422067D01*
X135183000Y-74777932D01*
X135171236Y-74897375D01*
X135124748Y-75050627D01*
X135124747Y-75050630D01*
X135049256Y-75191863D01*
X134947659Y-75315659D01*
X134823863Y-75417256D01*
X134682630Y-75492747D01*
X134682627Y-75492748D01*
X134529376Y-75539236D01*
X134370000Y-75554933D01*
X134210625Y-75539236D01*
X134057374Y-75492748D01*
X134057371Y-75492747D01*
X133916137Y-75417256D01*
X133792341Y-75315659D01*
X133690744Y-75191863D01*
X133615253Y-75050630D01*
X133615252Y-75050627D01*
X133568764Y-74897376D01*
X133557000Y-74777933D01*
X133557000Y-74422068D01*
X133568764Y-74302625D01*
X133615252Y-74149374D01*
X133615253Y-74149371D01*
X133690744Y-74008137D01*
X133792341Y-73884341D01*
X133916137Y-73782744D01*
X134057370Y-73707253D01*
X134057373Y-73707252D01*
X134210624Y-73660764D01*
X134370000Y-73645067D01*
X134529375Y-73660764D01*
X134529375Y-73660764D01*
G37*
G36*
X136529375Y-73660764D02*
G01*
X136682626Y-73707252D01*
X136682629Y-73707253D01*
X136823863Y-73782744D01*
X136947659Y-73884341D01*
X137049256Y-74008137D01*
X137124747Y-74149370D01*
X137124747Y-74149371D01*
X137124748Y-74149373D01*
X137171236Y-74302624D01*
X137183000Y-74422067D01*
X137183000Y-74777932D01*
X137171236Y-74897375D01*
X137124748Y-75050627D01*
X137124747Y-75050630D01*
X137049256Y-75191863D01*
X136947659Y-75315659D01*
X136823863Y-75417256D01*
X136682630Y-75492747D01*
X136682627Y-75492748D01*
X136529376Y-75539236D01*
X136370000Y-75554933D01*
X136210625Y-75539236D01*
X136057374Y-75492748D01*
X136057371Y-75492747D01*
X135916137Y-75417256D01*
X135792341Y-75315659D01*
X135690744Y-75191863D01*
X135615253Y-75050630D01*
X135615252Y-75050627D01*
X135568764Y-74897376D01*
X135557000Y-74777933D01*
X135557000Y-74422068D01*
X135568764Y-74302625D01*
X135615252Y-74149374D01*
X135615253Y-74149371D01*
X135690744Y-74008137D01*
X135792341Y-73884341D01*
X135916137Y-73782744D01*
X136057370Y-73707253D01*
X136057373Y-73707252D01*
X136210624Y-73660764D01*
X136370000Y-73645067D01*
X136529375Y-73660764D01*
X136529375Y-73660764D01*
G37*
G36*
X144890442Y-72765518D02*
G01*
X144956627Y-72772037D01*
X145126466Y-72823557D01*
X145282991Y-72907222D01*
X145318729Y-72936552D01*
X145420186Y-73019814D01*
X145503448Y-73121271D01*
X145532778Y-73157009D01*
X145616443Y-73313534D01*
X145667963Y-73483373D01*
X145685359Y-73660000D01*
X145667963Y-73836627D01*
X145616443Y-74006466D01*
X145532778Y-74162991D01*
X145503448Y-74198729D01*
X145420186Y-74300186D01*
X145318729Y-74383448D01*
X145282991Y-74412778D01*
X145126466Y-74496443D01*
X144956627Y-74547963D01*
X144890442Y-74554482D01*
X144824260Y-74561000D01*
X144735740Y-74561000D01*
X144669558Y-74554482D01*
X144603373Y-74547963D01*
X144433534Y-74496443D01*
X144277009Y-74412778D01*
X144241271Y-74383448D01*
X144139814Y-74300186D01*
X144056552Y-74198729D01*
X144027222Y-74162991D01*
X143943557Y-74006466D01*
X143892037Y-73836627D01*
X143874641Y-73660000D01*
X143892037Y-73483373D01*
X143943557Y-73313534D01*
X144027222Y-73157009D01*
X144056552Y-73121271D01*
X144139814Y-73019814D01*
X144241271Y-72936552D01*
X144277009Y-72907222D01*
X144433534Y-72823557D01*
X144603373Y-72772037D01*
X144669558Y-72765518D01*
X144735740Y-72759000D01*
X144824260Y-72759000D01*
X144890442Y-72765518D01*
X144890442Y-72765518D01*
G37*
G36*
X122030442Y-72765518D02*
G01*
X122096627Y-72772037D01*
X122266466Y-72823557D01*
X122422991Y-72907222D01*
X122458729Y-72936552D01*
X122560186Y-73019814D01*
X122643448Y-73121271D01*
X122672778Y-73157009D01*
X122756443Y-73313534D01*
X122807963Y-73483373D01*
X122825359Y-73660000D01*
X122807963Y-73836627D01*
X122756443Y-74006466D01*
X122672778Y-74162991D01*
X122643448Y-74198729D01*
X122560186Y-74300186D01*
X122458729Y-74383448D01*
X122422991Y-74412778D01*
X122266466Y-74496443D01*
X122096627Y-74547963D01*
X122030442Y-74554482D01*
X121964260Y-74561000D01*
X121875740Y-74561000D01*
X121809558Y-74554482D01*
X121743373Y-74547963D01*
X121573534Y-74496443D01*
X121417009Y-74412778D01*
X121381271Y-74383448D01*
X121279814Y-74300186D01*
X121196552Y-74198729D01*
X121167222Y-74162991D01*
X121083557Y-74006466D01*
X121032037Y-73836627D01*
X121014641Y-73660000D01*
X121032037Y-73483373D01*
X121083557Y-73313534D01*
X121167222Y-73157009D01*
X121196552Y-73121271D01*
X121279814Y-73019814D01*
X121381271Y-72936552D01*
X121417009Y-72907222D01*
X121573534Y-72823557D01*
X121743373Y-72772037D01*
X121809558Y-72765518D01*
X121875740Y-72759000D01*
X121964260Y-72759000D01*
X122030442Y-72765518D01*
X122030442Y-72765518D01*
G37*
G36*
X144890442Y-70225518D02*
G01*
X144956627Y-70232037D01*
X145126466Y-70283557D01*
X145282991Y-70367222D01*
X145318729Y-70396552D01*
X145420186Y-70479814D01*
X145503448Y-70581271D01*
X145532778Y-70617009D01*
X145616443Y-70773534D01*
X145667963Y-70943373D01*
X145685359Y-71120000D01*
X145667963Y-71296627D01*
X145616443Y-71466466D01*
X145532778Y-71622991D01*
X145503448Y-71658729D01*
X145420186Y-71760186D01*
X145318729Y-71843448D01*
X145282991Y-71872778D01*
X145126466Y-71956443D01*
X144956627Y-72007963D01*
X144890443Y-72014481D01*
X144824260Y-72021000D01*
X144735740Y-72021000D01*
X144669557Y-72014481D01*
X144603373Y-72007963D01*
X144433534Y-71956443D01*
X144277009Y-71872778D01*
X144241271Y-71843448D01*
X144139814Y-71760186D01*
X144056552Y-71658729D01*
X144027222Y-71622991D01*
X143943557Y-71466466D01*
X143892037Y-71296627D01*
X143874641Y-71120000D01*
X143892037Y-70943373D01*
X143943557Y-70773534D01*
X144027222Y-70617009D01*
X144056552Y-70581271D01*
X144139814Y-70479814D01*
X144241271Y-70396552D01*
X144277009Y-70367222D01*
X144433534Y-70283557D01*
X144603373Y-70232037D01*
X144669558Y-70225518D01*
X144735740Y-70219000D01*
X144824260Y-70219000D01*
X144890442Y-70225518D01*
X144890442Y-70225518D01*
G37*
G36*
X122821000Y-72021000D02*
G01*
X121019000Y-72021000D01*
X121019000Y-70219000D01*
X122821000Y-70219000D01*
X122821000Y-72021000D01*
X122821000Y-72021000D01*
G37*
M02*
